<?xml version="1.0" encoding="utf-8"?>
<!-- Generator: Adobe Illustrator 18.0.0, SVG Export Plug-In . SVG Version: 6.00 Build 0)  -->
<!DOCTYPE svg PUBLIC "-//W3C//DTD SVG 1.1//EN" "http://www.w3.org/Graphics/SVG/1.1/DTD/svg11.dtd">
<svg version="1.1" id="Layer_1" xmlns="http://www.w3.org/2000/svg" xmlns:xlink="http://www.w3.org/1999/xlink" x="0px" y="0px"
	 width="525px" height="80px" viewBox="0 0 525 80" enable-background="new 0 0 525 80" xml:space="preserve">
<g>
	<g>
		<path fill="#394A57" d="M6.3,5.6H0.1c0-0.2-0.1-0.5-0.1-0.7c0-0.3,0-0.5,0-0.8c0-0.2,0-0.5,0-0.7c0-0.3,0.1-0.5,0.1-0.7h15.6
			c0,0.2,0.1,0.4,0.1,0.7c0,0.2,0,0.5,0,0.7c0,0.2,0,0.5,0,0.8c0,0.3-0.1,0.5-0.1,0.7H9.6v20.6c-0.5,0.1-1,0.1-1.6,0.1
			c-0.6,0-1.2,0-1.7-0.1V5.6z"/>
		<path fill="#394A57" d="M18.5,2.2c0.2,0,0.5-0.1,0.8-0.1c0.3,0,0.6,0,0.8,0c0.2,0,0.5,0,0.8,0c0.3,0,0.6,0.1,0.8,0.1V12
			c0.2-0.3,0.4-0.6,0.7-1c0.3-0.4,0.7-0.7,1.1-1C24,9.7,24.5,9.5,25,9.3C25.6,9.1,26.2,9,26.9,9c1.9,0,3.3,0.6,4.3,1.7
			c0.9,1.1,1.4,2.7,1.4,4.9v10.6c-0.2,0-0.5,0.1-0.8,0.1c-0.3,0-0.6,0-0.8,0c-0.2,0-0.5,0-0.8,0c-0.3,0-0.6-0.1-0.8-0.1v-9.8
			c0-1.6-0.3-2.7-0.8-3.4C28,12.3,27.3,12,26.2,12c-0.6,0-1.2,0.1-1.7,0.3c-0.5,0.2-1,0.5-1.4,1c-0.4,0.4-0.7,1-1,1.8
			c-0.2,0.7-0.4,1.6-0.4,2.6v8.6c-0.2,0-0.5,0.1-0.8,0.1c-0.3,0-0.6,0-0.8,0c-0.2,0-0.5,0-0.8,0c-0.3,0-0.6-0.1-0.8-0.1V2.2z"/>
		<path fill="#394A57" d="M39.2,18.6c0,1.8,0.5,3.2,1.4,4c0.9,0.9,2.2,1.3,4,1.3c1.6,0,3-0.3,4.4-0.8c0.2,0.3,0.3,0.7,0.4,1.2
			c0.1,0.5,0.2,0.9,0.2,1.4c-0.7,0.3-1.5,0.5-2.4,0.7c-0.9,0.2-1.8,0.2-2.9,0.2c-1.5,0-2.8-0.2-3.9-0.6c-1.1-0.4-2-1-2.7-1.8
			c-0.7-0.8-1.2-1.7-1.6-2.8c-0.3-1.1-0.5-2.2-0.5-3.5c0-1.2,0.2-2.4,0.5-3.5c0.3-1.1,0.8-2,1.5-2.8c0.7-0.8,1.5-1.4,2.5-1.9
			c1-0.5,2.2-0.7,3.5-0.7c1.2,0,2.2,0.2,3,0.6c0.9,0.4,1.6,0.9,2.2,1.6c0.6,0.7,1,1.5,1.3,2.5c0.3,1,0.5,2,0.5,3.1c0,0.3,0,0.6,0,1
			c0,0.3,0,0.6-0.1,0.9H39.2z M47.5,16.2c0-0.6-0.1-1.2-0.2-1.8c-0.2-0.6-0.4-1-0.7-1.5c-0.3-0.4-0.7-0.7-1.2-1
			c-0.5-0.3-1.1-0.4-1.8-0.4c-1.3,0-2.4,0.4-3.1,1.2c-0.7,0.8-1.1,1.9-1.3,3.4H47.5z"/>
		<path fill="#394A57" d="M73.3,20.8h-8.9l-1.6,5.4c-0.3,0-0.6,0.1-0.9,0.1c-0.3,0-0.6,0-0.9,0c-0.3,0-0.6,0-0.9,0
			c-0.3,0-0.6-0.1-0.8-0.1L67,2.7c0.3,0,0.6-0.1,0.9-0.1c0.3,0,0.7,0,1,0c0.3,0,0.6,0,0.9,0c0.3,0,0.6,0.1,1,0.1l7.6,23.6
			c-0.3,0-0.6,0.1-0.9,0.1c-0.3,0-0.6,0-1,0c-0.3,0-0.6,0-0.9,0c-0.3,0-0.6-0.1-0.8-0.1L73.3,20.8z M65.3,17.9h7.2l-3.6-12
			L65.3,17.9z"/>
		<path fill="#394A57" d="M80.7,23.2c0.6,0.2,1.2,0.4,1.9,0.6c0.7,0.1,1.4,0.2,2.1,0.2c0.5,0,1-0.1,1.4-0.2c0.5-0.1,0.9-0.3,1.2-0.5
			c0.3-0.2,0.6-0.5,0.8-0.8c0.2-0.3,0.3-0.7,0.3-1.1c0-0.4-0.1-0.8-0.2-1.1c-0.2-0.3-0.4-0.5-0.7-0.7c-0.3-0.2-0.6-0.4-0.9-0.5
			c-0.4-0.1-0.7-0.3-1.2-0.4l-1.1-0.4c-1.4-0.5-2.4-1.1-3-1.8c-0.6-0.7-1-1.5-1-2.7c0-1.5,0.5-2.7,1.6-3.5C83,9.5,84.6,9,86.6,9
			c0.9,0,1.7,0.1,2.5,0.2c0.8,0.2,1.5,0.4,2.1,0.6c0,0.4-0.1,0.9-0.2,1.3c-0.1,0.4-0.3,0.8-0.4,1.2c-0.5-0.2-1.1-0.3-1.7-0.5
			c-0.7-0.2-1.4-0.2-2.1-0.2c-0.8,0-1.5,0.1-2.1,0.4c-0.6,0.3-0.9,0.8-0.9,1.5c0,0.4,0.1,0.7,0.2,1c0.2,0.3,0.4,0.5,0.6,0.7
			c0.3,0.2,0.6,0.3,0.9,0.5c0.3,0.1,0.7,0.3,1.1,0.4l1.4,0.5c0.5,0.2,1,0.4,1.5,0.6c0.5,0.2,0.9,0.5,1.2,0.9
			c0.3,0.4,0.6,0.8,0.8,1.3c0.2,0.5,0.3,1.1,0.3,1.9c0,0.8-0.2,1.5-0.5,2.2c-0.3,0.7-0.8,1.2-1.4,1.7c-0.6,0.5-1.3,0.8-2.2,1.1
			c-0.9,0.3-1.8,0.4-2.8,0.4c-1,0-2-0.1-2.8-0.2c-0.8-0.1-1.5-0.3-2.2-0.6c0-0.4,0.1-0.9,0.3-1.3C80.4,24.1,80.5,23.6,80.7,23.2z"/>
		<path fill="#394A57" d="M94.1,23.2c0.6,0.2,1.2,0.4,1.9,0.6c0.7,0.1,1.4,0.2,2.1,0.2c0.5,0,1-0.1,1.4-0.2c0.5-0.1,0.9-0.3,1.2-0.5
			c0.3-0.2,0.6-0.5,0.8-0.8c0.2-0.3,0.3-0.7,0.3-1.1c0-0.4-0.1-0.8-0.2-1.1c-0.2-0.3-0.4-0.5-0.7-0.7c-0.3-0.2-0.6-0.4-1-0.5
			c-0.4-0.1-0.7-0.3-1.2-0.4l-1.1-0.4c-1.4-0.5-2.4-1.1-3-1.8c-0.6-0.7-1-1.5-1-2.7c0-1.5,0.5-2.7,1.6-3.5C96.4,9.5,98,9,100,9
			c0.9,0,1.7,0.1,2.5,0.2c0.8,0.2,1.5,0.4,2.1,0.6c0,0.4-0.1,0.9-0.2,1.3c-0.1,0.4-0.3,0.8-0.4,1.2c-0.5-0.2-1.1-0.3-1.7-0.5
			c-0.7-0.2-1.4-0.2-2.1-0.2c-0.8,0-1.5,0.1-2.1,0.4c-0.6,0.3-0.9,0.8-0.9,1.5c0,0.4,0.1,0.7,0.2,1c0.2,0.3,0.4,0.5,0.6,0.7
			c0.3,0.2,0.6,0.3,0.9,0.5c0.3,0.1,0.7,0.3,1.1,0.4l1.4,0.5c0.5,0.2,1,0.4,1.5,0.6c0.5,0.2,0.9,0.5,1.2,0.9
			c0.3,0.4,0.6,0.8,0.8,1.3c0.2,0.5,0.3,1.1,0.3,1.9c0,0.8-0.2,1.5-0.5,2.2c-0.3,0.7-0.8,1.2-1.4,1.7c-0.6,0.5-1.3,0.8-2.2,1.1
			c-0.9,0.3-1.8,0.4-2.8,0.4c-1,0-2-0.1-2.8-0.2c-0.8-0.1-1.5-0.3-2.2-0.6c0-0.4,0.1-0.9,0.3-1.3C93.8,24.1,93.9,23.6,94.1,23.2z"/>
		<path fill="#394A57" d="M115.5,26.6c-1.3,0-2.5-0.2-3.4-0.7c-1-0.4-1.8-1.1-2.5-1.9c-0.7-0.8-1.1-1.7-1.5-2.8
			c-0.3-1.1-0.5-2.2-0.5-3.5c0-1.2,0.2-2.4,0.5-3.5c0.3-1.1,0.8-2,1.5-2.8c0.7-0.8,1.5-1.4,2.5-1.9c1-0.5,2.1-0.7,3.4-0.7
			c1.3,0,2.5,0.2,3.4,0.7c1,0.5,1.8,1.1,2.5,1.9c0.7,0.8,1.1,1.7,1.5,2.8c0.3,1.1,0.5,2.2,0.5,3.5c0,1.2-0.2,2.4-0.5,3.5
			c-0.3,1.1-0.8,2-1.5,2.8c-0.7,0.8-1.5,1.4-2.5,1.9C117.9,26.4,116.8,26.6,115.5,26.6z M115.5,24c1.5,0,2.6-0.5,3.3-1.6
			s1.1-2.6,1.1-4.6c0-1.9-0.4-3.5-1.1-4.5c-0.7-1.1-1.8-1.6-3.3-1.6c-1.5,0-2.6,0.5-3.3,1.6c-0.7,1.1-1.1,2.6-1.1,4.5
			c0,1.9,0.4,3.5,1.1,4.6S114,24,115.5,24z"/>
		<path fill="#394A57" d="M138.1,23.3c0.2,0.3,0.3,0.7,0.5,1.1c0.1,0.5,0.2,0.9,0.2,1.4c-1.3,0.5-2.8,0.8-4.4,0.8
			c-2.8,0-4.9-0.8-6.3-2.4c-1.4-1.6-2.1-3.7-2.1-6.4c0-1.2,0.2-2.4,0.5-3.5c0.3-1.1,0.9-2,1.6-2.8c0.7-0.8,1.5-1.4,2.6-1.9
			c1-0.5,2.2-0.7,3.6-0.7c0.9,0,1.7,0.1,2.4,0.2c0.7,0.1,1.4,0.3,2,0.5c0,0.4,0,0.8-0.1,1.3c-0.1,0.5-0.2,0.9-0.4,1.3
			c-1.1-0.4-2.3-0.6-3.7-0.6c-1.7,0-2.9,0.6-3.8,1.7c-0.8,1.1-1.2,2.6-1.2,4.4c0,2.1,0.5,3.6,1.4,4.6c0.9,1,2.2,1.5,3.9,1.5
			c0.7,0,1.3,0,1.8-0.1C137,23.7,137.5,23.5,138.1,23.3z"/>
		<path fill="#394A57" d="M142.9,12h-2.1c0-0.2-0.1-0.4-0.1-0.6c0-0.2,0-0.5,0-0.7c0-0.2,0-0.4,0-0.7c0-0.2,0.1-0.4,0.1-0.6h5.3
			v16.8c-0.2,0-0.5,0.1-0.8,0.1c-0.3,0-0.6,0-0.8,0c-0.2,0-0.5,0-0.8,0c-0.3,0-0.6-0.1-0.8-0.1V12z M142.2,5.7
			c0-0.3-0.1-0.5-0.1-0.9s0-0.6,0-0.8c0-0.2,0-0.5,0-0.8c0-0.3,0-0.6,0.1-0.8c0.3,0,0.6-0.1,0.9-0.1c0.3,0,0.6,0,0.9,0
			c0.2,0,0.5,0,0.9,0c0.3,0,0.6,0.1,0.9,0.1c0,0.2,0.1,0.5,0.1,0.8c0,0.3,0,0.6,0,0.8c0,0.2,0,0.5,0,0.8s0,0.6-0.1,0.9
			c-0.3,0-0.6,0.1-0.9,0.1c-0.3,0-0.6,0-0.8,0c-0.3,0-0.6,0-0.9,0C142.8,5.8,142.5,5.8,142.2,5.7z"/>
		<path fill="#394A57" d="M159.6,15.2c0-1.3-0.3-2.2-1-2.7c-0.7-0.5-1.6-0.8-2.8-0.8c-0.8,0-1.5,0.1-2.1,0.2
			c-0.7,0.1-1.3,0.3-1.9,0.5c-0.4-0.7-0.6-1.6-0.6-2.6c0.7-0.2,1.6-0.4,2.5-0.6c0.9-0.1,1.8-0.2,2.6-0.2c2.2,0,3.8,0.5,5,1.5
			c1.1,1,1.7,2.6,1.7,4.8v10.5c-0.8,0.2-1.7,0.4-2.8,0.5c-1.1,0.2-2.2,0.3-3.3,0.3c-1.1,0-2-0.1-2.9-0.3c-0.9-0.2-1.6-0.5-2.2-1
			c-0.6-0.4-1.1-1-1.4-1.7c-0.3-0.7-0.5-1.5-0.5-2.5c0-0.9,0.2-1.8,0.6-2.5c0.4-0.7,0.9-1.3,1.6-1.8c0.7-0.5,1.4-0.8,2.3-1
			c0.9-0.2,1.7-0.3,2.7-0.3c0.7,0,1.3,0,1.7,0.1c0.4,0,0.8,0.1,1.1,0.1V15.2z M159.6,18.3c-0.3,0-0.7-0.1-1.2-0.1
			c-0.5,0-0.9-0.1-1.3-0.1c-1.4,0-2.4,0.3-3.1,0.8c-0.7,0.5-1.1,1.3-1.1,2.3c0,0.7,0.1,1.2,0.4,1.5c0.2,0.4,0.5,0.7,0.9,0.9
			c0.4,0.2,0.8,0.3,1.2,0.4c0.4,0,0.9,0.1,1.2,0.1c0.5,0,1,0,1.6-0.1c0.5-0.1,1-0.1,1.4-0.2V18.3z"/>
		<path fill="#394A57" d="M167.6,12H165l-0.1-0.5l5.6-6.3h0.3v4.2h4.3c0.1,0.4,0.1,0.8,0.1,1.2c0,0.2,0,0.5,0,0.7
			c0,0.2-0.1,0.4-0.1,0.7h-4.3v7.7c0,0.9,0,1.6,0.1,2.2c0.1,0.5,0.2,1,0.4,1.3c0.2,0.3,0.4,0.5,0.8,0.6c0.3,0.1,0.7,0.1,1.2,0.1
			c0.4,0,0.7,0,1-0.1c0.3-0.1,0.6-0.1,0.9-0.2c0.2,0.4,0.2,0.9,0.3,1.3c0,0.5,0,0.9,0,1.2c-0.4,0.1-0.9,0.2-1.4,0.2
			c-0.5,0.1-1,0.1-1.5,0.1c-1.6,0-2.8-0.4-3.7-1.1c-0.9-0.8-1.3-2-1.3-3.8V12z"/>
		<path fill="#394A57" d="M179,12h-2.1c0-0.2-0.1-0.4-0.1-0.6c0-0.2,0-0.5,0-0.7c0-0.2,0-0.4,0-0.7c0-0.2,0.1-0.4,0.1-0.6h5.3v16.8
			c-0.2,0-0.5,0.1-0.8,0.1c-0.3,0-0.6,0-0.8,0c-0.2,0-0.5,0-0.8,0c-0.3,0-0.6-0.1-0.8-0.1V12z M178.3,5.7c0-0.3-0.1-0.5-0.1-0.9
			c0-0.3,0-0.6,0-0.8c0-0.2,0-0.5,0-0.8c0-0.3,0-0.6,0.1-0.8c0.3,0,0.6-0.1,0.9-0.1c0.3,0,0.6,0,0.9,0c0.2,0,0.5,0,0.9,0
			c0.3,0,0.6,0.1,0.9,0.1c0,0.2,0.1,0.5,0.1,0.8c0,0.3,0,0.6,0,0.8c0,0.2,0,0.5,0,0.8c0,0.3,0,0.6-0.1,0.9c-0.3,0-0.6,0.1-0.9,0.1
			c-0.3,0-0.6,0-0.8,0c-0.3,0-0.6,0-0.9,0C178.9,5.8,178.6,5.8,178.3,5.7z"/>
		<path fill="#394A57" d="M193.6,26.6c-1.3,0-2.5-0.2-3.4-0.7s-1.8-1.1-2.5-1.9c-0.7-0.8-1.1-1.7-1.5-2.8c-0.3-1.1-0.5-2.2-0.5-3.5
			c0-1.2,0.2-2.4,0.5-3.5c0.3-1.1,0.8-2,1.5-2.8c0.7-0.8,1.5-1.4,2.5-1.9c1-0.5,2.1-0.7,3.4-0.7c1.3,0,2.5,0.2,3.4,0.7
			c1,0.5,1.8,1.1,2.5,1.9c0.7,0.8,1.1,1.7,1.5,2.8c0.3,1.1,0.5,2.2,0.5,3.5c0,1.2-0.2,2.4-0.5,3.5c-0.3,1.1-0.8,2-1.5,2.8
			c-0.7,0.8-1.5,1.4-2.5,1.9S194.9,26.6,193.6,26.6z M193.6,24c1.5,0,2.6-0.5,3.3-1.6c0.7-1.1,1.1-2.6,1.1-4.6
			c0-1.9-0.4-3.5-1.1-4.5c-0.7-1.1-1.8-1.6-3.3-1.6c-1.5,0-2.6,0.5-3.3,1.6c-0.7,1.1-1.1,2.6-1.1,4.5c0,1.9,0.4,3.5,1.1,4.6
			C191,23.5,192.1,24,193.6,24z"/>
		<path fill="#394A57" d="M205.1,9.4c0.2,0,0.5-0.1,0.7-0.1c0.2,0,0.5,0,0.7,0c0.2,0,0.5,0,0.7,0c0.2,0,0.4,0.1,0.7,0.1
			c0.1,0.3,0.1,0.8,0.2,1.3c0.1,0.6,0.1,1,0.1,1.4c0.2-0.4,0.5-0.7,0.8-1.1c0.3-0.4,0.7-0.7,1.2-1c0.4-0.3,0.9-0.5,1.5-0.7
			c0.6-0.2,1.2-0.3,1.9-0.3c1.9,0,3.3,0.6,4.3,1.7c0.9,1.1,1.4,2.7,1.4,4.9v10.6c-0.2,0-0.5,0.1-0.8,0.1c-0.3,0-0.6,0-0.8,0
			c-0.2,0-0.5,0-0.8,0c-0.3,0-0.6-0.1-0.8-0.1v-9.8c0-1.6-0.2-2.7-0.7-3.4c-0.5-0.7-1.2-1.1-2.3-1.1c-0.6,0-1.2,0.1-1.7,0.3
			c-0.5,0.2-1,0.6-1.4,1c-0.4,0.5-0.7,1.1-1,1.8c-0.3,0.7-0.4,1.6-0.4,2.6v8.5c-0.2,0-0.5,0.1-0.8,0.1c-0.3,0-0.6,0-0.8,0
			c-0.2,0-0.5,0-0.8,0c-0.3,0-0.6-0.1-0.8-0.1V9.4z"/>
		<path fill="#394A57" d="M231.6,12h-2.8c-0.1-0.4-0.1-0.8-0.1-1.3c0-0.5,0-0.9,0.1-1.3h2.8V8.3c0-2.1,0.5-3.7,1.6-4.7
			c1-1.1,2.5-1.6,4.5-1.6c0.5,0,1,0,1.4,0.1c0.4,0.1,0.8,0.1,1.2,0.2c0,0.5-0.1,1-0.2,1.4c-0.1,0.4-0.2,0.8-0.3,1.2
			c-0.2,0-0.5-0.1-0.8-0.1c-0.3-0.1-0.7-0.1-1.1-0.1c-0.5,0-0.9,0-1.3,0.1c-0.4,0.1-0.7,0.3-1,0.6c-0.3,0.3-0.5,0.7-0.6,1.1
			c-0.2,0.5-0.2,1.1-0.2,1.9v1.1h4.3c0.1,0.4,0.1,0.9,0.1,1.3c0,0.4,0,0.8-0.1,1.2h-4.3v14.2c-0.2,0-0.5,0.1-0.8,0.1
			c-0.3,0-0.6,0-0.8,0c-0.2,0-0.5,0-0.8,0c-0.3,0-0.6-0.1-0.8-0.1V12z"/>
		<path fill="#394A57" d="M247.9,26.6c-1.3,0-2.5-0.2-3.4-0.7s-1.8-1.1-2.5-1.9c-0.7-0.8-1.1-1.7-1.5-2.8c-0.3-1.1-0.5-2.2-0.5-3.5
			c0-1.2,0.2-2.4,0.5-3.5c0.3-1.1,0.8-2,1.5-2.8c0.7-0.8,1.5-1.4,2.5-1.9c1-0.5,2.1-0.7,3.4-0.7c1.3,0,2.5,0.2,3.4,0.7
			c1,0.5,1.8,1.1,2.5,1.9c0.7,0.8,1.1,1.7,1.5,2.8c0.3,1.1,0.5,2.2,0.5,3.5c0,1.2-0.2,2.4-0.5,3.5c-0.3,1.1-0.8,2-1.5,2.8
			c-0.7,0.8-1.5,1.4-2.5,1.9S249.3,26.6,247.9,26.6z M247.9,24c1.5,0,2.6-0.5,3.3-1.6c0.7-1.1,1.1-2.6,1.1-4.6
			c0-1.9-0.4-3.5-1.1-4.5c-0.7-1.1-1.8-1.6-3.3-1.6c-1.5,0-2.6,0.5-3.3,1.6c-0.7,1.1-1.1,2.6-1.1,4.5c0,1.9,0.4,3.5,1.1,4.6
			C245.3,23.5,246.4,24,247.9,24z"/>
		<path fill="#394A57" d="M259.4,9.4c0.2,0,0.5-0.1,0.7-0.1c0.2,0,0.4,0,0.7,0s0.5,0,0.7,0c0.2,0,0.5,0.1,0.7,0.1
			c0.1,0.3,0.1,0.8,0.2,1.3c0.1,0.5,0.1,1,0.1,1.4c0.5-0.7,1.1-1.4,1.8-1.9c0.8-0.5,1.7-0.8,2.9-0.8c0.2,0,0.4,0,0.5,0
			c0.2,0,0.3,0,0.5,0c0,0.2,0.1,0.4,0.1,0.6c0,0.2,0,0.4,0,0.7c0,0.3,0,0.5,0,0.8c0,0.3-0.1,0.6-0.1,0.8c-0.2,0-0.4-0.1-0.5-0.1
			c-0.2,0-0.3,0-0.4,0c-0.6,0-1.2,0.1-1.7,0.2c-0.5,0.2-1,0.5-1.4,0.9c-0.4,0.4-0.8,1-1,1.7c-0.3,0.7-0.4,1.6-0.4,2.8v8.4
			c-0.2,0-0.5,0.1-0.8,0.1c-0.3,0-0.6,0-0.8,0c-0.2,0-0.5,0-0.8,0c-0.3,0-0.6-0.1-0.8-0.1V9.4z"/>
		<path fill="#394A57" d="M278.6,12h-2.6l-0.1-0.5l5.6-6.3h0.3v4.2h4.3c0.1,0.4,0.1,0.8,0.1,1.2c0,0.2,0,0.5,0,0.7
			c0,0.2-0.1,0.4-0.1,0.7h-4.3v7.7c0,0.9,0,1.6,0.1,2.2c0.1,0.5,0.2,1,0.4,1.3c0.2,0.3,0.4,0.5,0.8,0.6c0.3,0.1,0.7,0.1,1.2,0.1
			c0.4,0,0.7,0,1-0.1c0.3-0.1,0.6-0.1,0.9-0.2c0.2,0.4,0.2,0.9,0.3,1.3c0,0.5,0,0.9,0,1.2c-0.4,0.1-0.9,0.2-1.4,0.2
			c-0.5,0.1-1,0.1-1.5,0.1c-1.6,0-2.8-0.4-3.7-1.1c-0.9-0.8-1.3-2-1.3-3.8V12z"/>
		<path fill="#394A57" d="M289,2.2c0.2,0,0.5-0.1,0.8-0.1c0.3,0,0.6,0,0.8,0c0.2,0,0.5,0,0.8,0c0.3,0,0.6,0.1,0.8,0.1V12
			c0.2-0.3,0.4-0.6,0.7-1c0.3-0.4,0.7-0.7,1.1-1c0.4-0.3,0.9-0.5,1.5-0.7c0.6-0.2,1.2-0.3,1.9-0.3c1.9,0,3.3,0.6,4.3,1.7
			c0.9,1.1,1.4,2.7,1.4,4.9v10.6c-0.2,0-0.5,0.1-0.8,0.1c-0.3,0-0.6,0-0.8,0c-0.2,0-0.5,0-0.8,0c-0.3,0-0.6-0.1-0.8-0.1v-9.8
			c0-1.6-0.3-2.7-0.8-3.4c-0.5-0.7-1.3-1.1-2.3-1.1c-0.6,0-1.2,0.1-1.7,0.3c-0.5,0.2-1,0.5-1.4,1c-0.4,0.4-0.7,1-1,1.8
			s-0.4,1.6-0.4,2.6v8.6c-0.2,0-0.5,0.1-0.8,0.1c-0.3,0-0.6,0-0.8,0c-0.2,0-0.5,0-0.8,0c-0.3,0-0.6-0.1-0.8-0.1V2.2z"/>
		<path fill="#394A57" d="M309.8,18.6c0,1.8,0.5,3.2,1.4,4c0.9,0.9,2.2,1.3,4,1.3c1.6,0,3-0.3,4.4-0.8c0.2,0.3,0.3,0.7,0.4,1.2
			c0.1,0.5,0.2,0.9,0.2,1.4c-0.7,0.3-1.5,0.5-2.4,0.7c-0.9,0.2-1.8,0.2-2.9,0.2c-1.5,0-2.8-0.2-3.9-0.6c-1.1-0.4-2-1-2.7-1.8
			c-0.7-0.8-1.2-1.7-1.6-2.8c-0.3-1.1-0.5-2.2-0.5-3.5c0-1.2,0.2-2.4,0.5-3.5c0.3-1.1,0.8-2,1.5-2.8c0.7-0.8,1.5-1.4,2.5-1.9
			c1-0.5,2.2-0.7,3.5-0.7c1.2,0,2.2,0.2,3,0.6c0.9,0.4,1.6,0.9,2.2,1.6c0.6,0.7,1,1.5,1.3,2.5c0.3,1,0.5,2,0.5,3.1c0,0.3,0,0.6,0,1
			c0,0.3,0,0.6-0.1,0.9H309.8z M318.1,16.2c0-0.6-0.1-1.2-0.2-1.8c-0.2-0.6-0.4-1-0.7-1.5c-0.3-0.4-0.7-0.7-1.2-1
			c-0.5-0.3-1.1-0.4-1.8-0.4c-1.3,0-2.4,0.4-3.1,1.2c-0.7,0.8-1.1,1.9-1.3,3.4H318.1z"/>
		<path fill="#394A57" d="M343.9,20.8h-8.9l-1.6,5.4c-0.3,0-0.6,0.1-0.8,0.1c-0.3,0-0.6,0-0.9,0c-0.3,0-0.6,0-0.9,0
			c-0.3,0-0.6-0.1-0.8-0.1l7.7-23.6c0.3,0,0.6-0.1,0.9-0.1c0.3,0,0.7,0,1,0c0.3,0,0.6,0,0.9,0c0.3,0,0.6,0.1,1,0.1l7.6,23.6
			c-0.3,0-0.6,0.1-0.9,0.1c-0.3,0-0.6,0-1,0c-0.3,0-0.6,0-0.9,0c-0.3,0-0.6-0.1-0.8-0.1L343.9,20.8z M335.8,17.9h7.2l-3.6-12
			L335.8,17.9z"/>
		<path fill="#394A57" d="M362.2,2.2c0.2,0,0.5-0.1,0.8-0.1c0.3,0,0.6,0,0.8,0c0.2,0,0.5,0,0.8,0c0.3,0,0.6,0.1,0.8,0.1v23.6
			c-0.8,0.2-1.8,0.4-2.8,0.6c-1,0.2-2.2,0.2-3.4,0.2c-1.2,0-2.3-0.1-3.4-0.4c-1.1-0.3-2-0.8-2.8-1.5c-0.8-0.7-1.4-1.6-1.9-2.6
			c-0.5-1.1-0.7-2.4-0.7-4c0-1.4,0.2-2.6,0.6-3.7c0.4-1.1,1-2.1,1.7-2.9c0.7-0.8,1.6-1.4,2.7-1.9c1-0.4,2.2-0.7,3.5-0.7
			c0.6,0,1.1,0,1.7,0.1c0.6,0.1,1.1,0.2,1.5,0.3V2.2z M362.2,12.3c-0.4-0.2-0.9-0.3-1.4-0.4c-0.5-0.1-1-0.1-1.6-0.1
			c-0.9,0-1.7,0.2-2.3,0.5c-0.7,0.3-1.2,0.8-1.6,1.3c-0.4,0.6-0.7,1.2-1,2c-0.2,0.8-0.3,1.6-0.3,2.5c0,2.1,0.5,3.6,1.5,4.5
			c1,0.9,2.3,1.3,3.9,1.3c0.6,0,1.1,0,1.6-0.1c0.5-0.1,0.9-0.1,1.3-0.2V12.3z"/>
		<path fill="#394A57" d="M367.9,9.4c0.3,0,0.6-0.1,1-0.1c0.3,0,0.6,0,0.9,0c0.3,0,0.6,0,0.9,0c0.3,0,0.6,0.1,0.9,0.1l4.6,13.9
			l4.6-13.9c0.2,0,0.5-0.1,0.8-0.1c0.3,0,0.6,0,0.9,0c0.2,0,0.5,0,0.8,0c0.3,0,0.6,0.1,0.9,0.1l-6.6,16.8c-0.3,0-0.6,0.1-0.9,0.1
			c-0.3,0-0.5,0-0.8,0c-0.2,0-0.5,0-0.8,0c-0.3,0-0.5-0.1-0.8-0.1L367.9,9.4z"/>
		<path fill="#394A57" d="M395.5,15.2c0-1.3-0.3-2.2-1-2.7c-0.7-0.5-1.6-0.8-2.9-0.8c-0.8,0-1.5,0.1-2.1,0.2
			c-0.7,0.1-1.3,0.3-1.9,0.5c-0.4-0.7-0.6-1.6-0.6-2.6c0.7-0.2,1.6-0.4,2.5-0.6c0.9-0.1,1.8-0.2,2.6-0.2c2.2,0,3.8,0.5,5,1.5
			c1.1,1,1.7,2.6,1.7,4.8v10.5c-0.8,0.2-1.7,0.4-2.8,0.5c-1.1,0.2-2.2,0.3-3.3,0.3c-1.1,0-2-0.1-2.9-0.3c-0.9-0.2-1.6-0.5-2.2-1
			c-0.6-0.4-1.1-1-1.4-1.7c-0.3-0.7-0.5-1.5-0.5-2.5c0-0.9,0.2-1.8,0.6-2.5c0.4-0.7,0.9-1.3,1.6-1.8c0.7-0.5,1.4-0.8,2.3-1
			c0.9-0.2,1.7-0.3,2.7-0.3c0.7,0,1.3,0,1.7,0.1c0.4,0,0.8,0.1,1.1,0.1V15.2z M395.5,18.3c-0.3,0-0.7-0.1-1.2-0.1
			c-0.5,0-0.9-0.1-1.3-0.1c-1.4,0-2.4,0.3-3.1,0.8c-0.7,0.5-1.1,1.3-1.1,2.3c0,0.7,0.1,1.2,0.4,1.5c0.2,0.4,0.5,0.7,0.9,0.9
			c0.4,0.2,0.8,0.3,1.2,0.4c0.4,0,0.9,0.1,1.2,0.1c0.5,0,1,0,1.6-0.1c0.5-0.1,1-0.1,1.4-0.2V18.3z"/>
		<path fill="#394A57" d="M402.9,9.4c0.2,0,0.5-0.1,0.7-0.1c0.2,0,0.5,0,0.7,0s0.5,0,0.7,0c0.2,0,0.4,0.1,0.7,0.1
			c0.1,0.3,0.1,0.8,0.2,1.3c0.1,0.6,0.1,1,0.1,1.4c0.2-0.4,0.5-0.7,0.8-1.1c0.3-0.4,0.7-0.7,1.2-1c0.4-0.3,0.9-0.5,1.5-0.7
			c0.6-0.2,1.2-0.3,1.9-0.3c1.9,0,3.3,0.6,4.3,1.7c0.9,1.1,1.4,2.7,1.4,4.9v10.6c-0.2,0-0.5,0.1-0.8,0.1c-0.3,0-0.6,0-0.8,0
			c-0.2,0-0.5,0-0.8,0c-0.3,0-0.6-0.1-0.8-0.1v-9.8c0-1.6-0.2-2.7-0.7-3.4c-0.5-0.7-1.2-1.1-2.3-1.1c-0.6,0-1.2,0.1-1.7,0.3
			c-0.5,0.2-1,0.6-1.4,1c-0.4,0.5-0.7,1.1-1,1.8c-0.3,0.7-0.4,1.6-0.4,2.6v8.5c-0.2,0-0.5,0.1-0.8,0.1c-0.3,0-0.6,0-0.8,0
			c-0.2,0-0.5,0-0.8,0c-0.3,0-0.6-0.1-0.8-0.1V9.4z"/>
		<path fill="#394A57" d="M432.4,23.3c0.2,0.3,0.3,0.7,0.5,1.1c0.1,0.5,0.2,0.9,0.2,1.4c-1.3,0.5-2.8,0.8-4.4,0.8
			c-2.8,0-4.9-0.8-6.3-2.4c-1.4-1.6-2.1-3.7-2.1-6.4c0-1.2,0.2-2.4,0.5-3.5c0.3-1.1,0.9-2,1.6-2.8c0.7-0.8,1.5-1.4,2.6-1.9
			c1-0.5,2.2-0.7,3.6-0.7c0.9,0,1.7,0.1,2.4,0.2c0.7,0.1,1.4,0.3,2,0.5c0,0.4-0.1,0.8-0.1,1.3c-0.1,0.5-0.2,0.9-0.4,1.3
			c-1.1-0.4-2.3-0.6-3.7-0.6c-1.7,0-2.9,0.6-3.8,1.7c-0.8,1.1-1.2,2.6-1.2,4.4c0,2.1,0.5,3.6,1.4,4.6c0.9,1,2.2,1.5,3.9,1.5
			c0.7,0,1.3,0,1.8-0.1C431.3,23.7,431.9,23.5,432.4,23.3z"/>
		<path fill="#394A57" d="M438.2,18.6c0,1.8,0.5,3.2,1.4,4c0.9,0.9,2.2,1.3,4,1.3c1.6,0,3-0.3,4.4-0.8c0.2,0.3,0.3,0.7,0.4,1.2
			c0.1,0.5,0.2,0.9,0.2,1.4c-0.7,0.3-1.5,0.5-2.4,0.7c-0.9,0.2-1.8,0.2-2.9,0.2c-1.5,0-2.8-0.2-3.9-0.6c-1.1-0.4-2-1-2.7-1.8
			c-0.7-0.8-1.2-1.7-1.6-2.8c-0.3-1.1-0.5-2.2-0.5-3.5c0-1.2,0.2-2.4,0.5-3.5c0.3-1.1,0.8-2,1.5-2.8c0.7-0.8,1.5-1.4,2.5-1.9
			c1-0.5,2.2-0.7,3.5-0.7c1.2,0,2.2,0.2,3,0.6c0.9,0.4,1.6,0.9,2.2,1.6c0.6,0.7,1,1.5,1.3,2.5c0.3,1,0.5,2,0.5,3.1c0,0.3,0,0.6,0,1
			c0,0.3,0,0.6-0.1,0.9H438.2z M446.5,16.2c0-0.6-0.1-1.2-0.2-1.8c-0.2-0.6-0.4-1-0.7-1.5c-0.3-0.4-0.7-0.7-1.2-1
			c-0.5-0.3-1.1-0.4-1.8-0.4c-1.3,0-2.4,0.4-3.1,1.2c-0.7,0.8-1.1,1.9-1.3,3.4H446.5z"/>
		<path fill="#394A57" d="M453.3,9.4c0.2,0,0.5-0.1,0.7-0.1c0.2,0,0.5,0,0.7,0c0.2,0,0.5,0,0.7,0c0.2,0,0.4,0.1,0.7,0.1
			c0.1,0.3,0.1,0.8,0.2,1.3c0.1,0.5,0.1,1,0.1,1.4c0.2-0.4,0.4-0.8,0.7-1.1c0.3-0.4,0.6-0.7,1-1c0.4-0.3,0.9-0.5,1.4-0.7
			c0.5-0.2,1.1-0.3,1.7-0.3c1.3,0,2.3,0.3,3,0.8c0.7,0.5,1.3,1.3,1.6,2.2c0.2-0.4,0.5-0.7,0.8-1.1c0.3-0.4,0.7-0.7,1.1-1
			c0.4-0.3,0.8-0.5,1.3-0.7c0.5-0.2,1.1-0.3,1.7-0.3c1.9,0,3.4,0.5,4.2,1.6c0.9,1.1,1.3,2.7,1.3,4.8v10.7c-0.2,0-0.5,0.1-0.8,0.1
			c-0.3,0-0.6,0-0.8,0c-0.2,0-0.5,0-0.8,0c-0.3,0-0.6-0.1-0.8-0.1v-9.8c0-1.5-0.2-2.6-0.7-3.4c-0.5-0.8-1.2-1.1-2.3-1.1
			c-1.1,0-2,0.4-2.7,1.2c-0.7,0.8-1,2-1,3.6v9.5c-0.2,0-0.5,0.1-0.8,0.1c-0.3,0-0.6,0-0.8,0s-0.5,0-0.8,0c-0.3,0-0.6-0.1-0.8-0.1
			v-10c0-1.5-0.2-2.6-0.7-3.3c-0.4-0.7-1.1-1.1-2.1-1.1c-0.5,0-1.1,0.1-1.5,0.4c-0.5,0.2-0.9,0.6-1.3,1.1c-0.4,0.5-0.6,1.1-0.9,1.8
			c-0.2,0.7-0.3,1.6-0.3,2.5v8.6c-0.2,0-0.5,0.1-0.8,0.1c-0.3,0-0.6,0-0.8,0c-0.2,0-0.5,0-0.8,0c-0.3,0-0.6-0.1-0.8-0.1V9.4z"/>
		<path fill="#394A57" d="M483,18.6c0,1.8,0.5,3.2,1.4,4c0.9,0.9,2.2,1.3,4,1.3c1.6,0,3-0.3,4.4-0.8c0.2,0.3,0.3,0.7,0.4,1.2
			c0.1,0.5,0.2,0.9,0.2,1.4c-0.7,0.3-1.5,0.5-2.4,0.7c-0.9,0.2-1.8,0.2-2.9,0.2c-1.5,0-2.8-0.2-3.9-0.6c-1.1-0.4-2-1-2.7-1.8
			c-0.7-0.8-1.2-1.7-1.6-2.8c-0.3-1.1-0.5-2.2-0.5-3.5c0-1.2,0.2-2.4,0.5-3.5c0.3-1.1,0.8-2,1.5-2.8c0.7-0.8,1.5-1.4,2.5-1.9
			c1-0.5,2.2-0.7,3.5-0.7c1.2,0,2.2,0.2,3,0.6c0.9,0.4,1.6,0.9,2.2,1.6c0.6,0.7,1,1.5,1.3,2.5c0.3,1,0.5,2,0.5,3.1c0,0.3,0,0.6,0,1
			c0,0.3,0,0.6-0.1,0.9H483z M491.4,16.2c0-0.6-0.1-1.2-0.2-1.8c-0.2-0.6-0.4-1-0.7-1.5c-0.3-0.4-0.7-0.7-1.2-1
			c-0.5-0.3-1.1-0.4-1.8-0.4c-1.3,0-2.4,0.4-3.1,1.2c-0.7,0.8-1.1,1.9-1.3,3.4H491.4z"/>
		<path fill="#394A57" d="M498.2,9.4c0.2,0,0.5-0.1,0.7-0.1c0.2,0,0.5,0,0.7,0c0.2,0,0.5,0,0.7,0c0.2,0,0.4,0.1,0.7,0.1
			c0.1,0.3,0.1,0.8,0.2,1.3c0.1,0.6,0.1,1,0.1,1.4c0.2-0.4,0.5-0.7,0.8-1.1c0.3-0.4,0.7-0.7,1.2-1c0.4-0.3,0.9-0.5,1.5-0.7
			c0.6-0.2,1.2-0.3,1.9-0.3c1.9,0,3.3,0.6,4.3,1.7c0.9,1.1,1.4,2.7,1.4,4.9v10.6c-0.2,0-0.5,0.1-0.8,0.1c-0.3,0-0.6,0-0.8,0
			c-0.2,0-0.5,0-0.8,0c-0.3,0-0.6-0.1-0.8-0.1v-9.8c0-1.6-0.2-2.7-0.7-3.4c-0.5-0.7-1.2-1.1-2.3-1.1c-0.6,0-1.2,0.1-1.7,0.3
			c-0.5,0.2-1,0.6-1.4,1c-0.4,0.5-0.7,1.1-1,1.8c-0.2,0.7-0.4,1.6-0.4,2.6v8.5c-0.2,0-0.5,0.1-0.8,0.1c-0.3,0-0.6,0-0.8,0
			c-0.2,0-0.5,0-0.8,0c-0.3,0-0.6-0.1-0.8-0.1V9.4z"/>
		<path fill="#394A57" d="M517.1,12h-2.6l-0.1-0.5l5.6-6.3h0.3v4.2h4.3c0.1,0.4,0.1,0.8,0.1,1.2c0,0.2,0,0.5,0,0.7
			c0,0.2-0.1,0.4-0.1,0.7h-4.3v7.7c0,0.9,0,1.6,0.1,2.2c0.1,0.5,0.2,1,0.4,1.3c0.2,0.3,0.4,0.5,0.8,0.6c0.3,0.1,0.7,0.1,1.2,0.1
			c0.4,0,0.7,0,1-0.1c0.3-0.1,0.6-0.1,0.9-0.2c0.2,0.4,0.2,0.9,0.3,1.3c0,0.5,0,0.9,0,1.2c-0.4,0.1-0.9,0.2-1.4,0.2
			c-0.5,0.1-1,0.1-1.5,0.1c-1.6,0-2.8-0.4-3.7-1.1c-0.9-0.8-1.3-2-1.3-3.8V12z"/>
		<path fill="#394A57" d="M8.7,70.3c-1.3,0-2.5-0.2-3.4-0.7c-1-0.4-1.8-1.1-2.5-1.9C2.2,67,1.7,66.1,1.4,65
			c-0.3-1.1-0.5-2.2-0.5-3.5c0-1.2,0.2-2.4,0.5-3.5c0.3-1.1,0.8-2,1.5-2.8c0.7-0.8,1.5-1.4,2.5-1.9c1-0.5,2.1-0.7,3.4-0.7
			c1.3,0,2.5,0.2,3.4,0.7c1,0.5,1.8,1.1,2.5,1.9c0.7,0.8,1.1,1.7,1.5,2.8c0.3,1.1,0.5,2.2,0.5,3.5c0,1.2-0.2,2.4-0.5,3.5
			c-0.3,1.1-0.8,2-1.5,2.8c-0.7,0.8-1.5,1.4-2.5,1.9C11.2,70.1,10.1,70.3,8.7,70.3z M8.7,67.8c1.5,0,2.6-0.5,3.3-1.6
			c0.7-1.1,1.1-2.6,1.1-4.6c0-1.9-0.4-3.5-1.1-4.5c-0.7-1.1-1.8-1.6-3.3-1.6c-1.5,0-2.6,0.5-3.3,1.6c-0.7,1.1-1.1,2.6-1.1,4.5
			c0,1.9,0.4,3.5,1.1,4.6C6.1,67.2,7.2,67.8,8.7,67.8z"/>
		<path fill="#394A57" d="M21.2,55.7h-2.8c-0.1-0.3-0.1-0.8-0.1-1.3c0-0.5,0-0.9,0.1-1.3h2.8V52c0-2.1,0.5-3.7,1.6-4.7
			c1-1.1,2.5-1.6,4.5-1.6c0.5,0,1,0,1.4,0.1c0.4,0.1,0.8,0.1,1.2,0.2c0,0.5-0.1,1-0.2,1.4c-0.1,0.4-0.2,0.8-0.3,1.2
			c-0.2,0-0.5-0.1-0.8-0.1c-0.3-0.1-0.7-0.1-1.1-0.1c-0.5,0-0.9,0.1-1.3,0.1c-0.4,0.1-0.7,0.3-1,0.6c-0.3,0.3-0.5,0.7-0.6,1.1
			c-0.2,0.5-0.2,1.1-0.2,1.9v1.1h4.3c0.1,0.4,0.1,0.9,0.1,1.3c0,0.4,0,0.8-0.1,1.2h-4.3v14.2c-0.2,0-0.5,0.1-0.8,0.1
			c-0.3,0-0.6,0-0.8,0c-0.2,0-0.5,0-0.8,0c-0.3,0-0.6-0.1-0.8-0.1V55.7z"/>
		<path fill="#394A57" d="M38.3,66.4c0.7,0.3,1.5,0.5,2.3,0.7c0.8,0.2,1.7,0.3,2.9,0.3c1.8,0,3.1-0.4,4-1.1c0.9-0.7,1.3-1.7,1.3-3
			c0-0.6-0.1-1.1-0.3-1.6c-0.2-0.4-0.5-0.8-0.8-1.1c-0.4-0.3-0.8-0.6-1.4-0.9c-0.6-0.3-1.2-0.5-1.9-0.9l-1.9-0.8
			c-0.6-0.3-1.2-0.6-1.7-0.9c-0.5-0.3-1-0.7-1.4-1.2c-0.4-0.5-0.7-1-0.9-1.6c-0.2-0.6-0.3-1.3-0.3-2.1c0-2,0.7-3.5,2-4.7
			c1.4-1.1,3.3-1.7,5.7-1.7c1,0,2,0.1,3,0.3c0.9,0.2,1.8,0.4,2.5,0.7c-0.1,0.9-0.4,1.8-0.7,2.7c-0.6-0.2-1.3-0.4-2-0.6
			c-0.8-0.2-1.7-0.3-2.6-0.3c-1.4,0-2.4,0.3-3.2,0.8c-0.7,0.6-1.1,1.4-1.1,2.5c0,0.5,0.1,0.9,0.3,1.2c0.2,0.4,0.4,0.7,0.7,1
			c0.3,0.3,0.7,0.5,1.1,0.7c0.4,0.2,0.9,0.4,1.3,0.6l1.8,0.7c0.9,0.4,1.6,0.7,2.3,1.1c0.7,0.4,1.3,0.8,1.7,1.3
			c0.5,0.5,0.8,1.1,1.1,1.8c0.3,0.7,0.4,1.5,0.4,2.5c0,2.2-0.8,4-2.3,5.3c-1.6,1.3-3.7,1.9-6.5,1.9c-0.7,0-1.3,0-1.8-0.1
			c-0.5,0-1.1-0.1-1.5-0.2c-0.5-0.1-0.9-0.2-1.4-0.3c-0.4-0.1-0.9-0.3-1.3-0.4c0-0.5,0.1-1,0.3-1.5C37.9,67.3,38.1,66.9,38.3,66.4z"
			/>
		<path fill="#394A57" d="M55.6,53.1c0.2,0,0.5-0.1,0.8-0.1c0.3,0,0.6,0,0.8,0c0.2,0,0.5,0,0.8,0c0.3,0,0.6,0.1,0.8,0.1v9.2
			c0,1,0.1,1.9,0.3,2.6c0.2,0.7,0.5,1.2,0.9,1.6c0.4,0.4,0.9,0.7,1.4,0.8c0.6,0.2,1.2,0.2,2,0.2c1.1,0,2.1-0.1,2.8-0.4V53.1
			c0.2,0,0.5-0.1,0.8-0.1c0.3,0,0.6,0,0.8,0c0.2,0,0.5,0,0.8,0c0.3,0,0.6,0.1,0.8,0.1v16.3c-0.8,0.2-1.7,0.4-2.7,0.6
			c-1.1,0.2-2.2,0.3-3.3,0.3c-1.1,0-2.1-0.1-3-0.3c-1-0.2-1.8-0.6-2.5-1.1c-0.7-0.6-1.3-1.4-1.7-2.4c-0.4-1-0.6-2.4-0.6-4.1V53.1z"
			/>
		<path fill="#394A57" d="M73.6,66.9c0.6,0.2,1.2,0.4,1.9,0.6c0.7,0.1,1.4,0.2,2.1,0.2c0.5,0,1-0.1,1.4-0.2c0.5-0.1,0.9-0.3,1.2-0.5
			c0.3-0.2,0.6-0.5,0.8-0.8c0.2-0.3,0.3-0.7,0.3-1.1c0-0.4-0.1-0.8-0.2-1.1c-0.2-0.3-0.4-0.5-0.7-0.7c-0.3-0.2-0.6-0.4-0.9-0.5
			s-0.7-0.3-1.2-0.4L77.3,62c-1.4-0.5-2.4-1.1-3-1.8c-0.6-0.7-0.9-1.5-0.9-2.7c0-1.5,0.5-2.7,1.6-3.5c1.1-0.9,2.6-1.3,4.7-1.3
			c0.9,0,1.7,0.1,2.5,0.2c0.8,0.2,1.5,0.4,2.1,0.6c0,0.4-0.1,0.9-0.2,1.3c-0.1,0.4-0.3,0.8-0.4,1.2c-0.5-0.2-1.1-0.3-1.7-0.5
			c-0.7-0.2-1.4-0.2-2.1-0.2c-0.8,0-1.5,0.1-2.1,0.4c-0.6,0.3-0.9,0.8-0.9,1.5c0,0.4,0.1,0.7,0.2,1c0.2,0.3,0.4,0.5,0.6,0.7
			c0.3,0.2,0.6,0.3,0.9,0.5c0.3,0.1,0.7,0.3,1.1,0.4l1.4,0.5c0.5,0.2,1,0.4,1.5,0.6c0.5,0.2,0.9,0.5,1.2,0.9
			c0.3,0.4,0.6,0.8,0.8,1.3c0.2,0.5,0.3,1.1,0.3,1.9c0,0.8-0.2,1.5-0.5,2.2c-0.3,0.7-0.8,1.2-1.4,1.7c-0.6,0.5-1.3,0.8-2.2,1.1
			c-0.9,0.3-1.8,0.4-2.8,0.4c-1,0-2-0.1-2.8-0.2c-0.8-0.1-1.5-0.3-2.2-0.6c0-0.4,0.1-0.9,0.3-1.3C73.3,67.8,73.5,67.3,73.6,66.9z"/>
		<path fill="#394A57" d="M88.8,55.7h-2.6l-0.1-0.5l5.6-6.3H92v4.2h4.3c0.1,0.4,0.1,0.8,0.1,1.2c0,0.2,0,0.5,0,0.7
			c0,0.2-0.1,0.4-0.1,0.7H92v7.7c0,0.9,0,1.6,0.1,2.2c0.1,0.5,0.2,1,0.4,1.3c0.2,0.3,0.4,0.5,0.8,0.6c0.3,0.1,0.7,0.1,1.2,0.1
			c0.4,0,0.7,0,1-0.1c0.3-0.1,0.6-0.1,0.9-0.2c0.2,0.4,0.2,0.9,0.3,1.3c0,0.5,0,0.9,0,1.2c-0.4,0.1-0.9,0.2-1.4,0.2
			c-0.5,0.1-1,0.1-1.5,0.1c-1.6,0-2.8-0.4-3.7-1.1c-0.9-0.8-1.3-2-1.3-3.8V55.7z"/>
		<path fill="#394A57" d="M108.1,58.9c0-1.3-0.3-2.2-1-2.7c-0.7-0.5-1.6-0.8-2.9-0.8c-0.8,0-1.5,0.1-2.1,0.2
			c-0.7,0.1-1.3,0.3-1.9,0.5c-0.4-0.7-0.6-1.6-0.6-2.6c0.7-0.2,1.6-0.4,2.5-0.6c0.9-0.1,1.8-0.2,2.6-0.2c2.2,0,3.8,0.5,5,1.5
			c1.1,1,1.7,2.6,1.7,4.8v10.5c-0.8,0.2-1.7,0.4-2.8,0.5c-1.1,0.2-2.2,0.3-3.3,0.3c-1.1,0-2-0.1-2.9-0.3c-0.9-0.2-1.6-0.5-2.2-1
			c-0.6-0.4-1.1-1-1.4-1.7c-0.3-0.7-0.5-1.5-0.5-2.5c0-0.9,0.2-1.8,0.6-2.5c0.4-0.7,0.9-1.3,1.6-1.8c0.7-0.5,1.4-0.8,2.3-1
			c0.9-0.2,1.7-0.3,2.7-0.3c0.7,0,1.3,0,1.7,0c0.4,0,0.8,0.1,1.1,0.1V58.9z M108.1,62c-0.3,0-0.7-0.1-1.2-0.1
			c-0.5,0-0.9-0.1-1.3-0.1c-1.4,0-2.4,0.2-3.1,0.8c-0.7,0.5-1.1,1.3-1.1,2.3c0,0.7,0.1,1.2,0.4,1.5c0.2,0.4,0.5,0.7,0.9,0.9
			c0.4,0.2,0.8,0.3,1.2,0.4c0.4,0,0.9,0.1,1.2,0.1c0.5,0,1,0,1.6-0.1c0.5-0.1,1-0.1,1.4-0.2V62z"/>
		<path fill="#394A57" d="M116.5,55.7h-2.1c0-0.2-0.1-0.4-0.1-0.6c0-0.2,0-0.5,0-0.7c0-0.2,0-0.4,0-0.7c0-0.2,0.1-0.4,0.1-0.6h5.3
			v16.8c-0.2,0-0.5,0.1-0.8,0.1c-0.3,0-0.6,0-0.8,0c-0.2,0-0.5,0-0.8,0c-0.3,0-0.6-0.1-0.8-0.1V55.7z M115.8,49.4
			c0-0.3-0.1-0.5-0.1-0.9c0-0.3,0-0.6,0-0.8c0-0.2,0-0.5,0-0.8c0-0.3,0-0.6,0.1-0.8c0.3,0,0.6-0.1,0.9-0.1c0.3,0,0.6,0,0.9,0
			c0.2,0,0.5,0,0.9,0c0.3,0,0.6,0.1,0.9,0.1c0,0.2,0.1,0.5,0.1,0.8c0,0.3,0,0.6,0,0.8c0,0.2,0,0.5,0,0.8c0,0.3,0,0.6-0.1,0.9
			c-0.3,0-0.6,0.1-0.9,0.1c-0.3,0-0.6,0-0.8,0c-0.3,0-0.6,0-0.9,0C116.4,49.5,116.1,49.5,115.8,49.4z"/>
		<path fill="#394A57" d="M124.3,53.1c0.2,0,0.5-0.1,0.7-0.1c0.2,0,0.5,0,0.7,0c0.2,0,0.5,0,0.7,0c0.2,0,0.4,0.1,0.7,0.1
			c0.1,0.3,0.1,0.8,0.2,1.3c0.1,0.6,0.1,1,0.1,1.4c0.2-0.4,0.5-0.7,0.8-1.1c0.3-0.4,0.7-0.7,1.2-1c0.4-0.3,0.9-0.5,1.5-0.7
			c0.6-0.2,1.2-0.3,1.9-0.3c1.9,0,3.3,0.6,4.3,1.7c0.9,1.1,1.4,2.7,1.4,4.9v10.6c-0.2,0-0.5,0.1-0.8,0.1c-0.3,0-0.6,0-0.8,0
			c-0.2,0-0.5,0-0.8,0c-0.3,0-0.6-0.1-0.8-0.1v-9.8c0-1.6-0.2-2.7-0.7-3.4c-0.5-0.7-1.2-1.1-2.3-1.1c-0.6,0-1.2,0.1-1.7,0.3
			c-0.5,0.2-1,0.6-1.4,1c-0.4,0.5-0.7,1.1-1,1.8c-0.3,0.7-0.4,1.6-0.4,2.6v8.5c-0.2,0-0.5,0.1-0.8,0.1c-0.3,0-0.6,0-0.8,0
			c-0.2,0-0.5,0-0.8,0c-0.3,0-0.6-0.1-0.8-0.1V53.1z"/>
		<path fill="#394A57" d="M151.5,58.9c0-1.3-0.3-2.2-1-2.7c-0.7-0.5-1.6-0.8-2.9-0.8c-0.8,0-1.5,0.1-2.1,0.2
			c-0.7,0.1-1.3,0.3-1.9,0.5c-0.4-0.7-0.6-1.6-0.6-2.6c0.7-0.2,1.6-0.4,2.5-0.6c0.9-0.1,1.8-0.2,2.6-0.2c2.2,0,3.8,0.5,5,1.5
			c1.1,1,1.7,2.6,1.7,4.8v10.5c-0.8,0.2-1.7,0.4-2.8,0.5c-1.1,0.2-2.2,0.3-3.3,0.3c-1.1,0-2-0.1-2.9-0.3c-0.9-0.2-1.6-0.5-2.2-1
			c-0.6-0.4-1.1-1-1.4-1.7c-0.3-0.7-0.5-1.5-0.5-2.5c0-0.9,0.2-1.8,0.6-2.5c0.4-0.7,0.9-1.3,1.6-1.8c0.7-0.5,1.4-0.8,2.3-1
			c0.9-0.2,1.7-0.3,2.7-0.3c0.7,0,1.3,0,1.7,0s0.8,0.1,1.1,0.1V58.9z M151.5,62c-0.3,0-0.7-0.1-1.2-0.1c-0.5,0-0.9-0.1-1.3-0.1
			c-1.4,0-2.4,0.2-3.1,0.8c-0.7,0.5-1.1,1.3-1.1,2.3c0,0.7,0.1,1.2,0.4,1.5c0.2,0.4,0.5,0.7,0.9,0.9c0.4,0.2,0.8,0.3,1.2,0.4
			c0.4,0,0.9,0.1,1.2,0.1c0.5,0,1,0,1.6-0.1c0.5-0.1,1-0.1,1.4-0.2V62z"/>
		<path fill="#394A57" d="M158.8,45.9c0.2,0,0.5-0.1,0.8-0.1c0.3,0,0.6,0,0.8,0c0.2,0,0.5,0,0.8,0c0.3,0,0.6,0.1,0.8,0.1v9.2
			c0.4-0.7,1-1.2,1.8-1.7c0.8-0.5,1.8-0.7,3-0.7c1,0,1.9,0.2,2.8,0.5c0.9,0.3,1.6,0.8,2.2,1.5c0.6,0.7,1.1,1.6,1.4,2.6
			c0.3,1.1,0.5,2.3,0.5,3.7c0,2.9-0.8,5.1-2.4,6.8c-1.6,1.6-4,2.4-7,2.4c-1,0-1.9-0.1-3-0.3c-1-0.2-1.9-0.4-2.6-0.6V45.9z
			 M162.1,67.2c0.4,0.1,0.8,0.2,1.3,0.3c0.4,0.1,0.9,0.1,1.4,0.1c0.8,0,1.6-0.1,2.2-0.4s1.3-0.6,1.8-1.1c0.5-0.5,0.9-1.2,1.2-2
			c0.3-0.8,0.4-1.7,0.4-2.8c0-1.8-0.3-3.2-0.9-4.2c-0.6-1-1.7-1.5-3.1-1.5c-0.5,0-1,0.1-1.5,0.2c-0.5,0.2-0.9,0.4-1.4,0.8
			c-0.4,0.4-0.7,0.8-1,1.4c-0.3,0.6-0.4,1.3-0.4,2.2V67.2z"/>
		<path fill="#394A57" d="M178.5,55.7h-2.1c0-0.2-0.1-0.4-0.1-0.6c0-0.2,0-0.5,0-0.7c0-0.2,0-0.4,0-0.7c0-0.2,0.1-0.4,0.1-0.6h5.3
			v16.8c-0.2,0-0.5,0.1-0.8,0.1c-0.3,0-0.6,0-0.8,0c-0.2,0-0.5,0-0.8,0c-0.3,0-0.6-0.1-0.8-0.1V55.7z M177.8,49.4
			c0-0.3-0.1-0.5-0.1-0.9c0-0.3,0-0.6,0-0.8c0-0.2,0-0.5,0-0.8c0-0.3,0-0.6,0.1-0.8c0.3,0,0.6-0.1,0.9-0.1c0.3,0,0.6,0,0.9,0
			c0.2,0,0.5,0,0.9,0c0.3,0,0.6,0.1,0.9,0.1c0,0.2,0.1,0.5,0.1,0.8c0,0.3,0,0.6,0,0.8c0,0.2,0,0.5,0,0.8c0,0.3,0,0.6-0.1,0.9
			c-0.3,0-0.6,0.1-0.9,0.1c-0.3,0-0.6,0-0.8,0c-0.3,0-0.6,0-0.9,0C178.4,49.5,178.1,49.5,177.8,49.4z"/>
		<path fill="#394A57" d="M186.3,45.9c0.2,0,0.5-0.1,0.8-0.1c0.3,0,0.6,0,0.8,0c0.2,0,0.5,0,0.8,0c0.3,0,0.6,0.1,0.8,0.1v18.9
			c0,0.6,0.1,1.1,0.2,1.4c0.1,0.4,0.3,0.6,0.4,0.8c0.2,0.2,0.4,0.3,0.7,0.4c0.3,0.1,0.5,0.1,0.8,0.1c0.2,0,0.4,0,0.7,0
			c0.3,0,0.5-0.1,0.6-0.1c0.2,0.8,0.3,1.6,0.3,2.5c-0.3,0.1-0.7,0.2-1.1,0.2c-0.4,0-0.8,0.1-1.2,0.1c-0.6,0-1.2-0.1-1.8-0.2
			c-0.5-0.2-1-0.4-1.4-0.8c-0.4-0.4-0.7-0.8-1-1.4c-0.2-0.6-0.4-1.3-0.4-2.2V45.9z"/>
		<path fill="#394A57" d="M196.4,55.7h-2.1c0-0.2-0.1-0.4-0.1-0.6c0-0.2,0-0.5,0-0.7c0-0.2,0-0.4,0-0.7c0-0.2,0.1-0.4,0.1-0.6h5.3
			v16.8c-0.2,0-0.5,0.1-0.8,0.1c-0.3,0-0.6,0-0.8,0c-0.2,0-0.5,0-0.8,0c-0.3,0-0.6-0.1-0.8-0.1V55.7z M195.7,49.4
			c0-0.3-0.1-0.5-0.1-0.9c0-0.3,0-0.6,0-0.8c0-0.2,0-0.5,0-0.8c0-0.3,0-0.6,0.1-0.8c0.3,0,0.6-0.1,0.9-0.1c0.3,0,0.6,0,0.9,0
			c0.2,0,0.5,0,0.9,0c0.3,0,0.6,0.1,0.9,0.1c0,0.2,0.1,0.5,0.1,0.8c0,0.3,0,0.6,0,0.8c0,0.2,0,0.5,0,0.8c0,0.3,0,0.6-0.1,0.9
			c-0.3,0-0.6,0.1-0.9,0.1c-0.3,0-0.6,0-0.8,0c-0.3,0-0.6,0-0.9,0C196.3,49.5,196,49.5,195.7,49.4z"/>
		<path fill="#394A57" d="M204.8,55.7h-2.6l-0.1-0.5l5.6-6.3h0.3v4.2h4.3c0.1,0.4,0.1,0.8,0.1,1.2c0,0.2,0,0.5,0,0.7
			c0,0.2-0.1,0.4-0.1,0.7H208v7.7c0,0.9,0,1.6,0.1,2.2c0.1,0.5,0.2,1,0.4,1.3c0.2,0.3,0.4,0.5,0.8,0.6c0.3,0.1,0.7,0.1,1.2,0.1
			c0.4,0,0.7,0,1-0.1c0.3-0.1,0.6-0.1,0.9-0.2c0.2,0.4,0.2,0.9,0.3,1.3c0,0.5,0,0.9,0,1.2c-0.4,0.1-0.9,0.2-1.4,0.2
			c-0.5,0.1-1,0.1-1.5,0.1c-1.6,0-2.8-0.4-3.7-1.1c-0.9-0.8-1.3-2-1.3-3.8V55.7z"/>
		<path fill="#394A57" d="M221,70c-0.2,0-0.4,0-0.5,0c-0.2,0-0.4,0-0.5,0c-0.2,0-0.4,0-0.7,0c-0.2,0-0.4,0-0.6-0.1l-5.6-16.8
			c0.3,0,0.6-0.1,0.9-0.1c0.3,0,0.6,0,0.9,0c0.3,0,0.6,0,0.9,0c0.3,0,0.6,0,0.9,0.1l4.7,15.6l4.8-15.6c0.5-0.1,1-0.1,1.6-0.1
			c0.2,0,0.5,0,0.8,0c0.3,0,0.6,0,0.9,0.1l-6.5,20.2c-0.3,0.9-0.6,1.6-0.9,2.3c-0.3,0.6-0.7,1.1-1.1,1.5c-0.4,0.4-0.9,0.6-1.4,0.8
			c-0.5,0.1-1.1,0.2-1.8,0.2c-0.5,0-1,0-1.5-0.1c-0.5-0.1-0.9-0.2-1.3-0.3c0-0.5,0-0.9,0.1-1.3c0.1-0.4,0.2-0.8,0.4-1.2
			c0.2,0.1,0.5,0.1,0.8,0.2c0.3,0.1,0.7,0.1,1.1,0.1c0.3,0,0.6,0,0.8-0.1c0.3-0.1,0.5-0.2,0.7-0.3c0.2-0.2,0.4-0.4,0.6-0.7
			c0.2-0.3,0.4-0.7,0.5-1.2L221,70z"/>
		<path fill="#394A57" d="M242.5,55.7h-2.1c0-0.2-0.1-0.4-0.1-0.6c0-0.2,0-0.5,0-0.7c0-0.2,0-0.4,0-0.7c0-0.2,0.1-0.4,0.1-0.6h5.3
			v16.8c-0.2,0-0.5,0.1-0.8,0.1c-0.3,0-0.6,0-0.8,0c-0.2,0-0.5,0-0.8,0c-0.3,0-0.6-0.1-0.8-0.1V55.7z M241.8,49.4
			c0-0.3-0.1-0.5-0.1-0.9c0-0.3,0-0.6,0-0.8c0-0.2,0-0.5,0-0.8c0-0.3,0-0.6,0.1-0.8c0.3,0,0.6-0.1,0.9-0.1c0.3,0,0.6,0,0.9,0
			c0.2,0,0.5,0,0.9,0c0.3,0,0.6,0.1,0.9,0.1c0,0.2,0.1,0.5,0.1,0.8c0,0.3,0,0.6,0,0.8c0,0.2,0,0.5,0,0.8c0,0.3,0,0.6-0.1,0.9
			c-0.3,0-0.6,0.1-0.9,0.1c-0.3,0-0.6,0-0.8,0c-0.3,0-0.6,0-0.9,0C242.4,49.5,242.1,49.5,241.8,49.4z"/>
		<path fill="#394A57" d="M250.3,53.1c0.2,0,0.5-0.1,0.7-0.1c0.2,0,0.5,0,0.7,0c0.2,0,0.5,0,0.7,0c0.2,0,0.4,0.1,0.7,0.1
			c0.1,0.3,0.1,0.8,0.2,1.3c0.1,0.6,0.1,1,0.1,1.4c0.2-0.4,0.5-0.7,0.8-1.1c0.3-0.4,0.7-0.7,1.2-1c0.4-0.3,0.9-0.5,1.5-0.7
			c0.6-0.2,1.2-0.3,1.9-0.3c1.9,0,3.3,0.6,4.3,1.7c0.9,1.1,1.4,2.7,1.4,4.9v10.6c-0.2,0-0.5,0.1-0.8,0.1c-0.3,0-0.6,0-0.8,0
			c-0.2,0-0.5,0-0.8,0c-0.3,0-0.6-0.1-0.8-0.1v-9.8c0-1.6-0.2-2.7-0.7-3.4c-0.5-0.7-1.2-1.1-2.3-1.1c-0.6,0-1.2,0.1-1.7,0.3
			c-0.5,0.2-1,0.6-1.4,1c-0.4,0.5-0.7,1.1-1,1.8c-0.3,0.7-0.4,1.6-0.4,2.6v8.5c-0.2,0-0.5,0.1-0.8,0.1c-0.3,0-0.6,0-0.8,0
			c-0.2,0-0.5,0-0.8,0c-0.3,0-0.6-0.1-0.8-0.1V53.1z"/>
		<path fill="#394A57" d="M278.4,46.4c0.3,0,0.5-0.1,0.8-0.1c0.3,0,0.6,0,0.9,0c0.3,0,0.6,0,0.9,0c0.3,0,0.6,0.1,0.8,0.1v9.7h10
			v-9.7c0.2,0,0.5-0.1,0.8-0.1c0.3,0,0.6,0,0.9,0c0.3,0,0.6,0,0.9,0c0.3,0,0.6,0.1,0.8,0.1v23.6c-0.2,0-0.5,0.1-0.8,0.1
			c-0.3,0-0.6,0-0.9,0c-0.3,0-0.6,0-0.9,0c-0.3,0-0.6-0.1-0.8-0.1V59h-10v10.9c-0.3,0-0.5,0.1-0.8,0.1c-0.3,0-0.6,0-0.9,0
			c-0.3,0-0.6,0-0.9,0c-0.3,0-0.6-0.1-0.8-0.1V46.4z"/>
		<path fill="#394A57" d="M300.9,55.7h-2.1c0-0.2-0.1-0.4-0.1-0.6c0-0.2,0-0.5,0-0.7c0-0.2,0-0.4,0-0.7c0-0.2,0.1-0.4,0.1-0.6h5.3
			v16.8c-0.2,0-0.5,0.1-0.8,0.1c-0.3,0-0.6,0-0.8,0c-0.2,0-0.5,0-0.8,0c-0.3,0-0.6-0.1-0.8-0.1V55.7z M300.2,49.4
			c0-0.3-0.1-0.5-0.1-0.9c0-0.3,0-0.6,0-0.8c0-0.2,0-0.5,0-0.8c0-0.3,0-0.6,0.1-0.8c0.3,0,0.6-0.1,0.9-0.1c0.3,0,0.6,0,0.9,0
			c0.2,0,0.5,0,0.9,0c0.3,0,0.6,0.1,0.9,0.1c0,0.2,0.1,0.5,0.1,0.8c0,0.3,0,0.6,0,0.8c0,0.2,0,0.5,0,0.8c0,0.3,0,0.6-0.1,0.9
			c-0.3,0-0.6,0.1-0.9,0.1c-0.3,0-0.6,0-0.8,0c-0.3,0-0.6,0-0.9,0C300.8,49.5,300.5,49.5,300.2,49.4z"/>
		<path fill="#394A57" d="M317.7,67.8c1.9,0,3.4,0.5,4.2,1.2c0.9,0.8,1.3,1.9,1.3,3.2c0,0.9-0.2,1.7-0.7,2.4
			c-0.5,0.7-1.1,1.3-1.9,1.8c-0.8,0.5-1.8,0.9-2.9,1.2c-1.1,0.3-2.3,0.4-3.6,0.4c-2.3,0-4-0.3-5.1-1c-1.2-0.7-1.8-1.8-1.8-3.3
			c0-0.9,0.2-1.7,0.7-2.4c0.5-0.7,1.1-1.3,1.9-1.7c-0.4-0.3-0.8-0.6-1.1-1.1c-0.3-0.4-0.4-1-0.4-1.6c0-0.8,0.2-1.5,0.5-2.1
			c0.4-0.6,0.8-1.1,1.5-1.6c-0.7-0.5-1.3-1.2-1.7-1.9c-0.4-0.8-0.7-1.7-0.7-2.7c0-0.8,0.2-1.6,0.5-2.3c0.3-0.7,0.7-1.3,1.3-1.9
			c0.6-0.5,1.3-1,2.1-1.3c0.9-0.3,1.8-0.5,2.9-0.5c1,0,1.9,0.1,2.7,0.4c0.8,0.3,1.5,0.6,2,1.1c0.4-0.4,1-0.6,1.8-0.9
			c0.7-0.2,1.6-0.3,2.5-0.3c0.1,0.4,0.1,0.9,0.1,1.4c0,0.2,0,0.5,0,0.8c0,0.3-0.1,0.5-0.1,0.8h-2.9c0.2,0.4,0.4,0.8,0.6,1.2
			c0.1,0.4,0.2,0.9,0.2,1.5c0,0.9-0.2,1.7-0.5,2.4c-0.3,0.7-0.8,1.3-1.4,1.9c-0.6,0.5-1.3,0.9-2.1,1.2c-0.8,0.3-1.7,0.4-2.7,0.4
			c-0.9,0-1.7-0.1-2.4-0.3c-0.3,0.2-0.6,0.4-0.9,0.8c-0.3,0.4-0.4,0.7-0.4,1.2c0,0.4,0.1,0.7,0.4,1c0.3,0.3,0.9,0.5,1.9,0.5
			L317.7,67.8z M313.3,70.4c-1,0-1.7,0.2-2.2,0.8c-0.5,0.5-0.7,1.2-0.7,2c0,0.5,0.1,0.9,0.3,1.2c0.2,0.3,0.5,0.6,0.8,0.7
			c0.4,0.2,0.8,0.3,1.3,0.4c0.5,0.1,1,0.1,1.6,0.1c1.7,0,3.1-0.3,4.1-0.9s1.5-1.3,1.5-2.2c0-0.7-0.2-1.2-0.6-1.5
			c-0.4-0.4-1.2-0.5-2.3-0.6L313.3,70.4z M314.8,62.2c1.2,0,2.1-0.3,2.6-1c0.6-0.7,0.9-1.5,0.9-2.5c0-1-0.3-1.9-0.9-2.6
			c-0.6-0.7-1.4-1-2.6-1c-1.2,0-2,0.3-2.6,1c-0.6,0.7-0.8,1.5-0.8,2.6c0,1,0.3,1.9,0.8,2.5C312.8,61.9,313.6,62.2,314.8,62.2z"/>
		<path fill="#394A57" d="M326.2,45.9c0.2,0,0.5-0.1,0.8-0.1c0.3,0,0.6,0,0.8,0c0.2,0,0.5,0,0.8,0c0.3,0,0.6,0.1,0.8,0.1v9.8
			c0.2-0.3,0.4-0.6,0.7-1c0.3-0.4,0.7-0.7,1.1-1c0.4-0.3,0.9-0.5,1.5-0.7c0.6-0.2,1.2-0.3,1.9-0.3c1.9,0,3.3,0.6,4.3,1.7
			c0.9,1.1,1.4,2.7,1.4,4.9v10.6c-0.2,0-0.5,0.1-0.8,0.1c-0.3,0-0.6,0-0.8,0c-0.2,0-0.5,0-0.8,0c-0.3,0-0.6-0.1-0.8-0.1v-9.8
			c0-1.6-0.3-2.7-0.8-3.4c-0.5-0.7-1.3-1.1-2.3-1.1c-0.6,0-1.2,0.1-1.7,0.3c-0.5,0.2-1,0.5-1.4,1c-0.4,0.4-0.7,1-1,1.8
			c-0.2,0.7-0.4,1.6-0.4,2.6v8.6c-0.2,0-0.5,0.1-0.8,0.1c-0.3,0-0.6,0-0.8,0c-0.2,0-0.5,0-0.8,0c-0.3,0-0.6-0.1-0.8-0.1V45.9z"/>
		<path fill="#394A57" d="M346.9,62.3c0,1.8,0.5,3.2,1.4,4c0.9,0.9,2.2,1.3,4,1.3c1.6,0,3-0.3,4.4-0.8c0.2,0.3,0.3,0.7,0.4,1.2
			c0.1,0.5,0.2,0.9,0.2,1.4c-0.7,0.3-1.5,0.5-2.4,0.7c-0.9,0.2-1.8,0.2-2.9,0.2c-1.5,0-2.8-0.2-3.9-0.6c-1.1-0.4-2-1-2.7-1.8
			c-0.7-0.8-1.2-1.7-1.6-2.8c-0.3-1.1-0.5-2.2-0.5-3.5c0-1.2,0.2-2.4,0.5-3.5c0.3-1.1,0.8-2,1.5-2.8c0.7-0.8,1.5-1.4,2.5-1.9
			c1-0.5,2.2-0.7,3.5-0.7c1.2,0,2.2,0.2,3,0.6c0.9,0.4,1.6,0.9,2.2,1.6c0.6,0.7,1,1.5,1.3,2.5c0.3,1,0.5,2,0.5,3.1c0,0.3,0,0.6,0,1
			c0,0.3,0,0.6-0.1,0.9H346.9z M355.2,59.9c0-0.6-0.1-1.2-0.2-1.8c-0.2-0.6-0.4-1-0.7-1.5c-0.3-0.4-0.7-0.7-1.2-1
			c-0.5-0.3-1.1-0.4-1.8-0.4c-1.3,0-2.4,0.4-3.1,1.2c-0.7,0.8-1.1,1.9-1.3,3.4H355.2z"/>
		<path fill="#394A57" d="M362,53.1c0.2,0,0.5-0.1,0.7-0.1c0.2,0,0.4,0,0.7,0c0.2,0,0.5,0,0.7,0c0.2,0,0.5,0.1,0.7,0.1
			c0.1,0.3,0.1,0.8,0.2,1.3c0.1,0.5,0.1,1,0.1,1.4c0.5-0.7,1.1-1.4,1.8-1.9c0.8-0.5,1.7-0.8,2.9-0.8c0.2,0,0.4,0,0.5,0
			c0.2,0,0.3,0,0.5,0.1c0,0.2,0.1,0.4,0.1,0.6c0,0.2,0,0.4,0,0.7c0,0.3,0,0.5,0,0.8c0,0.3-0.1,0.6-0.1,0.8c-0.2,0-0.4-0.1-0.5-0.1
			c-0.2,0-0.3,0-0.4,0c-0.6,0-1.2,0.1-1.7,0.2c-0.5,0.2-1,0.5-1.4,0.9c-0.4,0.4-0.8,1-1,1.7c-0.3,0.7-0.4,1.6-0.4,2.8v8.4
			c-0.2,0-0.5,0.1-0.8,0.1c-0.3,0-0.6,0-0.8,0c-0.2,0-0.5,0-0.8,0c-0.3,0-0.6-0.1-0.8-0.1V53.1z"/>
		<path fill="#394A57" d="M381.8,46.4h12.9c0.1,0.4,0.1,0.9,0.1,1.4c0,0.2,0,0.5,0,0.8c0,0.3,0,0.5-0.1,0.7h-9.6v6.7h7.7
			c0,0.2,0.1,0.5,0.1,0.7c0,0.3,0,0.5,0,0.7c0,0.2,0,0.5,0,0.8c0,0.3-0.1,0.5-0.1,0.7h-7.7V67h9.9c0.1,0.4,0.1,0.9,0.1,1.4
			c0,0.2,0,0.5,0,0.8c0,0.3,0,0.5-0.1,0.7h-13.2V46.4z"/>
		<path fill="#394A57" d="M408.9,45.9c0.2,0,0.5-0.1,0.8-0.1c0.3,0,0.6,0,0.8,0c0.2,0,0.5,0,0.8,0c0.3,0,0.6,0.1,0.8,0.1v23.6
			c-0.8,0.2-1.8,0.4-2.8,0.6c-1,0.2-2.2,0.2-3.4,0.2c-1.2,0-2.3-0.1-3.4-0.4c-1.1-0.3-2-0.8-2.8-1.5c-0.8-0.7-1.4-1.6-1.9-2.6
			c-0.5-1.1-0.7-2.4-0.7-4c0-1.4,0.2-2.6,0.6-3.7s1-2.1,1.7-2.9c0.7-0.8,1.6-1.4,2.7-1.9c1-0.4,2.2-0.7,3.5-0.7c0.6,0,1.1,0,1.7,0.1
			c0.6,0.1,1.1,0.2,1.5,0.3V45.9z M408.9,56c-0.4-0.2-0.9-0.3-1.4-0.4c-0.5-0.1-1-0.1-1.6-0.1c-0.9,0-1.7,0.2-2.3,0.5
			c-0.7,0.3-1.2,0.8-1.6,1.3c-0.4,0.6-0.7,1.2-1,2c-0.2,0.8-0.3,1.6-0.3,2.5c0,2.1,0.5,3.6,1.5,4.5c1,0.9,2.3,1.3,3.9,1.3
			c0.6,0,1.1,0,1.6-0.1c0.5-0.1,0.9-0.1,1.3-0.2V56z"/>
		<path fill="#394A57" d="M416.5,53.1c0.2,0,0.5-0.1,0.8-0.1c0.3,0,0.6,0,0.8,0c0.2,0,0.5,0,0.8,0c0.3,0,0.6,0.1,0.8,0.1v9.2
			c0,1,0.1,1.9,0.3,2.6c0.2,0.7,0.5,1.2,0.9,1.6c0.4,0.4,0.9,0.7,1.4,0.8c0.6,0.2,1.2,0.2,2,0.2c1.1,0,2.1-0.1,2.8-0.4V53.1
			c0.2,0,0.5-0.1,0.8-0.1c0.3,0,0.6,0,0.8,0c0.2,0,0.5,0,0.8,0c0.3,0,0.6,0.1,0.8,0.1v16.3c-0.8,0.2-1.7,0.4-2.7,0.6
			c-1.1,0.2-2.2,0.3-3.3,0.3c-1.1,0-2.1-0.1-3-0.3c-0.9-0.2-1.8-0.6-2.5-1.1c-0.7-0.6-1.3-1.4-1.7-2.4c-0.4-1-0.6-2.4-0.6-4.1V53.1z
			"/>
		<path fill="#394A57" d="M446,67c0.2,0.3,0.3,0.7,0.5,1.1c0.1,0.5,0.2,0.9,0.2,1.4c-1.3,0.5-2.8,0.8-4.4,0.8
			c-2.8,0-4.9-0.8-6.3-2.4c-1.4-1.6-2.1-3.7-2.1-6.4c0-1.2,0.2-2.4,0.5-3.5c0.3-1.1,0.9-2,1.6-2.8c0.7-0.8,1.5-1.4,2.6-1.9
			c1-0.5,2.2-0.7,3.6-0.7c0.9,0,1.7,0.1,2.4,0.2c0.7,0.1,1.4,0.3,2,0.5c0,0.4,0,0.8-0.1,1.3c-0.1,0.5-0.2,0.9-0.4,1.3
			c-1.1-0.4-2.3-0.6-3.7-0.6c-1.7,0-2.9,0.6-3.8,1.7c-0.8,1.1-1.2,2.6-1.2,4.4c0,2.1,0.5,3.6,1.4,4.6c0.9,1,2.2,1.5,3.9,1.5
			c0.7,0,1.3,0,1.8-0.1C444.9,67.4,445.5,67.2,446,67z"/>
		<path fill="#394A57" d="M458.7,58.9c0-1.3-0.3-2.2-1-2.7c-0.7-0.5-1.6-0.8-2.8-0.8c-0.8,0-1.5,0.1-2.1,0.2
			c-0.7,0.1-1.3,0.3-1.9,0.5c-0.4-0.7-0.6-1.6-0.6-2.6c0.7-0.2,1.6-0.4,2.5-0.6c0.9-0.1,1.8-0.2,2.6-0.2c2.2,0,3.8,0.5,5,1.5
			c1.1,1,1.7,2.6,1.7,4.8v10.5c-0.8,0.2-1.7,0.4-2.8,0.5c-1.1,0.2-2.2,0.3-3.3,0.3c-1.1,0-2-0.1-2.9-0.3c-0.9-0.2-1.6-0.5-2.2-1
			c-0.6-0.4-1.1-1-1.4-1.7c-0.3-0.7-0.5-1.5-0.5-2.5c0-0.9,0.2-1.8,0.6-2.5c0.4-0.7,0.9-1.3,1.6-1.8c0.7-0.5,1.4-0.8,2.3-1
			c0.9-0.2,1.7-0.3,2.7-0.3c0.7,0,1.3,0,1.7,0s0.8,0.1,1.1,0.1V58.9z M458.7,62c-0.3,0-0.7-0.1-1.2-0.1c-0.5,0-0.9-0.1-1.3-0.1
			c-1.4,0-2.4,0.2-3.1,0.8c-0.7,0.5-1.1,1.3-1.1,2.3c0,0.7,0.1,1.2,0.4,1.5c0.2,0.4,0.5,0.7,0.9,0.9c0.4,0.2,0.8,0.3,1.2,0.4
			c0.4,0,0.9,0.1,1.2,0.1c0.5,0,1,0,1.6-0.1c0.5-0.1,1-0.1,1.4-0.2V62z"/>
		<path fill="#394A57" d="M466.7,55.7h-2.6l-0.1-0.5l5.6-6.3h0.3v4.2h4.3c0.1,0.4,0.1,0.8,0.1,1.2c0,0.2,0,0.5,0,0.7
			c0,0.2-0.1,0.4-0.1,0.7h-4.3v7.7c0,0.9,0,1.6,0.1,2.2c0.1,0.5,0.2,1,0.4,1.3c0.2,0.3,0.4,0.5,0.8,0.6c0.3,0.1,0.7,0.1,1.2,0.1
			c0.4,0,0.7,0,1-0.1c0.3-0.1,0.6-0.1,0.9-0.2c0.2,0.4,0.2,0.9,0.3,1.3c0,0.5,0,0.9,0,1.2c-0.4,0.1-0.9,0.2-1.4,0.2
			c-0.5,0.1-1,0.1-1.5,0.1c-1.6,0-2.8-0.4-3.7-1.1c-0.9-0.8-1.3-2-1.3-3.8V55.7z"/>
		<path fill="#394A57" d="M478.2,55.7H476c0-0.2-0.1-0.4-0.1-0.6c0-0.2,0-0.5,0-0.7c0-0.2,0-0.4,0-0.7c0-0.2,0.1-0.4,0.1-0.6h5.3
			v16.8c-0.2,0-0.5,0.1-0.8,0.1c-0.3,0-0.6,0-0.8,0c-0.2,0-0.5,0-0.8,0c-0.3,0-0.6-0.1-0.8-0.1V55.7z M477.4,49.4
			c0-0.3-0.1-0.5-0.1-0.9c0-0.3,0-0.6,0-0.8c0-0.2,0-0.5,0-0.8c0-0.3,0-0.6,0.1-0.8c0.3,0,0.6-0.1,0.9-0.1c0.3,0,0.6,0,0.9,0
			c0.2,0,0.5,0,0.9,0c0.3,0,0.6,0.1,0.9,0.1c0,0.2,0.1,0.5,0.1,0.8c0,0.3,0,0.6,0,0.8c0,0.2,0,0.5,0,0.8c0,0.3,0,0.6-0.1,0.9
			c-0.3,0-0.6,0.1-0.9,0.1c-0.3,0-0.6,0-0.8,0c-0.3,0-0.6,0-0.9,0C478,49.5,477.7,49.5,477.4,49.4z"/>
		<path fill="#394A57" d="M492.8,70.3c-1.3,0-2.5-0.2-3.4-0.7c-1-0.4-1.8-1.1-2.5-1.9c-0.7-0.8-1.1-1.7-1.5-2.8
			c-0.3-1.1-0.5-2.2-0.5-3.5c0-1.2,0.2-2.4,0.5-3.5c0.3-1.1,0.8-2,1.5-2.8c0.7-0.8,1.5-1.4,2.5-1.9c1-0.5,2.1-0.7,3.4-0.7
			s2.5,0.2,3.4,0.7c1,0.5,1.8,1.1,2.5,1.9c0.7,0.8,1.1,1.7,1.5,2.8c0.3,1.1,0.5,2.2,0.5,3.5c0,1.2-0.2,2.4-0.5,3.5
			c-0.3,1.1-0.8,2-1.5,2.8c-0.7,0.8-1.5,1.4-2.5,1.9C495.2,70.1,494.1,70.3,492.8,70.3z M492.8,67.8c1.5,0,2.6-0.5,3.3-1.6
			c0.7-1.1,1.1-2.6,1.1-4.6c0-1.9-0.4-3.5-1.1-4.5c-0.7-1.1-1.8-1.6-3.3-1.6c-1.5,0-2.6,0.5-3.3,1.6c-0.7,1.1-1.1,2.6-1.1,4.5
			c0,1.9,0.4,3.5,1.1,4.6C490.2,67.2,491.3,67.8,492.8,67.8z"/>
		<path fill="#394A57" d="M504.2,53.1c0.2,0,0.5-0.1,0.7-0.1c0.2,0,0.5,0,0.7,0s0.5,0,0.7,0c0.2,0,0.4,0.1,0.7,0.1
			c0.1,0.3,0.1,0.8,0.2,1.3c0.1,0.6,0.1,1,0.1,1.4c0.2-0.4,0.5-0.7,0.8-1.1c0.3-0.4,0.7-0.7,1.2-1c0.4-0.3,0.9-0.5,1.5-0.7
			c0.6-0.2,1.2-0.3,1.9-0.3c1.9,0,3.3,0.6,4.3,1.7c0.9,1.1,1.4,2.7,1.4,4.9v10.6c-0.2,0-0.5,0.1-0.8,0.1c-0.3,0-0.6,0-0.8,0
			c-0.2,0-0.5,0-0.8,0c-0.3,0-0.6-0.1-0.8-0.1v-9.8c0-1.6-0.2-2.7-0.7-3.4c-0.5-0.7-1.2-1.1-2.3-1.1c-0.6,0-1.2,0.1-1.7,0.3
			c-0.5,0.2-1,0.6-1.4,1s-0.7,1.1-1,1.8c-0.3,0.7-0.4,1.6-0.4,2.6v8.5c-0.2,0-0.5,0.1-0.8,0.1c-0.3,0-0.6,0-0.8,0
			c-0.2,0-0.5,0-0.8,0c-0.3,0-0.6-0.1-0.8-0.1V53.1z"/>
	</g>
</g>
</svg>
