<?xml version="1.0" encoding="utf-8"?>
<!-- Generator: Adobe Illustrator 18.0.0, SVG Export Plug-In . SVG Version: 6.00 Build 0)  -->
<!DOCTYPE svg PUBLIC "-//W3C//DTD SVG 1.1//EN" "http://www.w3.org/Graphics/SVG/1.1/DTD/svg11.dtd">
<svg version="1.1" id="Layer_1" xmlns="http://www.w3.org/2000/svg" xmlns:xlink="http://www.w3.org/1999/xlink" x="0px" y="0px"
	 width="150px" height="95px" viewBox="0 0 150 95" enable-background="new 0 0 150 95" xml:space="preserve">
<g>
	<g>
		<path fill="#394A57" d="M39.5,77.5c0-3.1-2.2-3.8-5.4-3.8c-1.8,0-3.6,0.3-5.6,1c-0.5-0.8-0.8-1.6-1-2.4c-0.2-0.7-0.3-1.6-0.3-2.7
			c2.8-0.9,5.6-1.4,8.3-1.4c3.7,0,6.5,1,8.3,2.7c1.8,1.7,2.5,4.2,2.5,7.5v14.6c-3,1-6.2,1.5-9.6,1.5c-5.6,0-11.2-1.5-11.2-8.5
			c0-6,5.5-8.2,11-8.2c0.9,0,2,0,3.1,0.1V77.5z M39.5,82.5c-0.8-0.1-1.8-0.2-2.5-0.2c-2.7,0-5.2,0.7-5.2,3.6c0,3.2,3,3.4,4.9,3.4
			c1,0,1.9-0.2,2.7-0.3V82.5z"/>
		<path fill="#394A57" d="M14.1,77.5c0-3.1-2.2-3.8-5.4-3.8c-1.8,0-3.6,0.3-5.6,1c-0.5-0.8-0.8-1.6-1-2.4c-0.2-0.7-0.3-1.6-0.3-2.7
			c2.8-0.9,5.6-1.4,8.3-1.4c3.7,0,6.5,1,8.3,2.7c1.8,1.7,2.5,4.2,2.5,7.5v14.6c-3,1-6.2,1.5-9.6,1.5C5.6,94.6,0,93.1,0,86.2
			c0-6,5.5-8.2,11-8.2c0.9,0,2,0,3.1,0.1V77.5z M14.1,82.5c-0.8-0.1-1.8-0.2-2.5-0.2c-2.7,0-5.2,0.7-5.2,3.6c0,3.2,3,3.4,4.9,3.4
			c1,0,1.9-0.2,2.7-0.3V82.5z"/>
		<path fill="#394A57" d="M53,80.8c-1-1-1.5-2.6-1.5-4.6c0-5.3,4.3-7.9,9.9-7.9c2.4,0,4.9,0.4,7.5,1.4c-0.1,0.8-0.2,1.7-0.5,2.6
			c-0.3,0.9-0.6,1.7-0.9,2.4c-1.6-0.7-3.5-1.2-5.6-1.2c-2,0-3.5,0.6-3.5,2.1c0,1.5,1,1.8,2.5,2.3l2.8,0.8c4.6,1.3,6,3.7,6,7.4
			c0,5.4-5,8.5-11.1,8.5c-2.8,0-4.9-0.3-7.7-1.4c0.1-0.9,0.2-1.8,0.5-2.7c0.2-0.9,0.6-1.8,1-2.6c1.9,0.7,3.7,1.3,6,1.3
			c2.5,0,4.6-1,4.6-2.7c0-1.6-1-2.1-2.7-2.6C58.7,83.4,55.2,83,53,80.8z"/>
		<path fill="#394A57" d="M108.9,83.6c0.3,3.8,2.7,5.6,6.9,5.6c2.3,0,4.7-0.5,6.7-1.2c0.4,0.7,0.7,1.4,0.9,2.3
			c0.3,0.9,0.4,1.9,0.4,2.9c-2.5,1-5.4,1.5-8.6,1.5c-8.4,0-13.2-4.5-13.2-13c0-6.7,3.6-13.3,12.2-13.3c7.6,0,11.1,5.8,11.1,12
			c0,1.2-0.1,2.5-0.2,3.3H108.9z M118.7,78.8c-0.1-2.6-1.4-5.2-4.6-5.2c-3.7,0-4.9,2.4-5.2,5.2H118.7z"/>
		<path fill="#394A57" d="M90.2,94.1V79.8c0-2.6-0.4-5.5-3.7-5.5c-3.7,0-4.9,2.9-4.9,6.5v13.2c-1,0.2-2.2,0.2-3.4,0.2
			c-1.3,0-2.4-0.1-3.4-0.2V58.5c1-0.2,2.2-0.2,3.4-0.2c1.3,0,2.4,0.1,3.4,0.2v13.4c1.5-2,3.6-3.6,7-3.6c6,0,8.5,3.5,8.5,9.7v16.1
			c-1,0.2-2.2,0.2-3.5,0.2S91.2,94.3,90.2,94.1z"/>
	</g>
	<g>
		<linearGradient id="SVGID_1_" gradientUnits="userSpaceOnUse" x1="102.6869" y1="27.1877" x2="144.3623" y2="-0.3966">
			<stop  offset="0.12" style="stop-color:#00A65E"/>
			<stop  offset="0.55" style="stop-color:#68BD49"/>
			<stop  offset="0.9" style="stop-color:#CFDD45"/>
		</linearGradient>
		<path fill="url(#SVGID_1_)" d="M125.1,0.4c-14.7,0-28.1,6.1-37.6,15.9c13.6,1.9,21.8,15,24,27.4c10-28.6,24.9-38.5,32.8-38.5
			c2.1,0,3.8,0.7,5.6,1.4C142.6,2.7,134.1,0.4,125.1,0.4z"/>
		<linearGradient id="SVGID_2_" gradientUnits="userSpaceOnUse" x1="34.9984" y1="62.3545" x2="55.2225" y2="5.2435">
			<stop  offset="0" style="stop-color:#15397F"/>
			<stop  offset="0.4" style="stop-color:#008CD1"/>
			<stop  offset="0.9" style="stop-color:#00B0DA"/>
		</linearGradient>
		<path fill="url(#SVGID_2_)" d="M45,61.4c5.8-25.7,25.5-46.5,41.7-45.2c-7.8-3.7-16.6-5.7-25.8-5.7c-30.2,0-55.3,22.1-60,50.9H45z"
			/>
		<linearGradient id="SVGID_3_" gradientUnits="userSpaceOnUse" x1="66.922" y1="27.0797" x2="108.089" y2="43.7123">
			<stop  offset="0.1" style="stop-color:#3D2986"/>
			<stop  offset="0.5" style="stop-color:#565EAA"/>
			<stop  offset="0.95" style="stop-color:#A587BE"/>
		</linearGradient>
		<path fill="url(#SVGID_3_)" d="M85.2,19.8c-7.6,0-15,5.5-20.1,10.8l4.4,13.5h38.4C105.1,29.7,95.8,19.8,85.2,19.8z"/>
	</g>
</g>
</svg>
