<?xml version="1.0" encoding="utf-8"?>
<!-- Generator: Adobe Illustrator 20.1.0, SVG Export Plug-In . SVG Version: 6.00 Build 0)  -->
<svg version="1.1" id="Layer_1" xmlns="http://www.w3.org/2000/svg" xmlns:xlink="http://www.w3.org/1999/xlink" x="0px" y="0px"
	 viewBox="0 0 20 20" style="enable-background:new 0 0 20 20;" xml:space="preserve">
<style type="text/css">
	.st0{fill:#68BD49;}
</style>
<path id="CALENDAR__x2F__ADD_2_" class="st0" d="M19.1,20H0.9C0.4,20,0,19.6,0,19.1V3.4c0-0.5,0.4-0.9,0.9-0.9h1.9v0.9
	c0,1.2,1,2.2,2.2,2.2s2.2-1,2.2-2.2V2.5h5.6v0.9c0,1.2,1,2.2,2.2,2.2s2.2-1,2.2-2.2V2.5h1.9c0.5,0,0.9,0.4,0.9,0.9V19
	C20,19.6,19.6,20,19.1,20z M18.1,7.5H1.9v10.6h16.3L18.1,7.5L18.1,7.5z M7.8,11.9h1.3v-1.3c0-0.5,0.4-0.9,0.9-0.9s0.9,0.4,0.9,0.9
	v1.3h1.3c0.5,0,0.9,0.4,0.9,0.9s-0.4,0.9-0.9,0.9h-1.3V15c0,0.5-0.4,0.9-0.9,0.9S9.1,15.5,9.1,15v-1.3H7.8c-0.5,0-0.9-0.4-0.9-0.9
	S7.3,11.9,7.8,11.9z M7.9,9.7L7.9,9.7L7.9,9.7L7.9,9.7z M15,4.4c-0.5,0-0.9-0.4-0.9-0.9V0.9C14.1,0.4,14.5,0,15,0s0.9,0.4,0.9,0.9
	v2.5C15.9,4,15.5,4.4,15,4.4z M5,4.4c-0.5,0-0.9-0.4-0.9-1V0.9C4.1,0.4,4.5,0,5,0s0.9,0.4,0.9,0.9v2.5C5.9,4,5.5,4.4,5,4.4z"/>
</svg>
