<svg id="Layer_1" data-name="Layer 1" xmlns="http://www.w3.org/2000/svg" width="20" height="20" viewBox="0 0 20 20"><defs><style>.cls-1{fill:#68bd49;fill-rule:evenodd;}</style></defs><title>Artboard 1</title><path id="LOGIN" class="cls-1" d="M18.42,10v8.07a1.05,1.05,0,0,1-1.05,1.05H12.1a1.05,1.05,0,0,1,0-2.1h4.21V3H12.1a1.05,1.05,0,0,1,0-2.1h5.26a1.05,1.05,0,0,1,1.05,1.05V10h0Zm-6-.76a1.05,1.05,0,0,1,0,1.56h0L9,14H9A1.05,1.05,0,1,1,7.54,12.4h0L9,11.08H2.64a1.05,1.05,0,1,1,0-2.1H9L7.54,7.65h0A1.05,1.05,0,1,1,9,6.08H9l3.51,3.16Z"/></svg>