<?xml version="1.0" encoding="utf-8"?>
<!-- Generator: Adobe Illustrator 18.0.0, SVG Export Plug-In . SVG Version: 6.00 Build 0)  -->
<!DOCTYPE svg PUBLIC "-//W3C//DTD SVG 1.1//EN" "http://www.w3.org/Graphics/SVG/1.1/DTD/svg11.dtd">
<svg version="1.1" id="Layer_1" xmlns="http://www.w3.org/2000/svg" xmlns:xlink="http://www.w3.org/1999/xlink" x="0px" y="0px"
	 width="16.3px" height="28.5px" viewBox="0 0 16.3 28.5" enable-background="new 0 0 16.3 28.5" xml:space="preserve">
<path fill="#68BD49" d="M0.7,3.6l10.7,10.7L0.6,25.1C0.2,25.4,0,25.9,0,26.5c0,1.1,0.9,2,2,2c0.5,0,1-0.2,1.4-0.6l0,0l12.2-12.2l0,0
	c0.4-0.4,0.6-0.9,0.6-1.5l0,0l0,0c0-0.6-0.2-1.1-0.6-1.5l0,0L3.4,0.6l0,0C3.1,0.2,2.6,0,2,0C0.9,0,0,0.9,0,2C0,2.7,0.3,3.2,0.7,3.6"
	/>
</svg>
