<?xml version="1.0" encoding="utf-8"?>
<!-- Generator: Adobe Illustrator 18.0.0, SVG Export Plug-In . SVG Version: 6.00 Build 0)  -->
<!DOCTYPE svg PUBLIC "-//W3C//DTD SVG 1.1//EN" "http://www.w3.org/Graphics/SVG/1.1/DTD/svg11.dtd">
<svg version="1.1" id="Layer_1" xmlns="http://www.w3.org/2000/svg" xmlns:xlink="http://www.w3.org/1999/xlink" x="0px" y="0px"
	 width="20px" height="20px" viewBox="0 0 20 20" enable-background="new 0 0 20 20" xml:space="preserve">
<path fill-rule="evenodd" clip-rule="evenodd" fill="#68BD49" d="M19.3,16.7c0.3,0.3,0.5,0.8,0.5,1.3c0,1-0.8,1.8-1.8,1.8
	c-0.5,0-1-0.2-1.3-0.5l-5.4-5.4c-1.1,0.6-2.4,1-3.7,1c-4.1,0-7.4-3.3-7.4-7.4s3.3-7.4,7.4-7.4s7.4,3.3,7.4,7.4c0,1.4-0.4,2.6-1,3.7
	L19.3,16.7z M7.5,2C4.5,2,2,4.5,2,7.5s2.5,5.5,5.5,5.5s5.5-2.5,5.5-5.5S10.6,2,7.5,2"/>
</svg>
