<?xml version="1.0" encoding="utf-8"?>
<!-- Generator: Adobe Illustrator 18.0.0, SVG Export Plug-In . SVG Version: 6.00 Build 0)  -->
<!DOCTYPE svg PUBLIC "-//W3C//DTD SVG 1.1//EN" "http://www.w3.org/Graphics/SVG/1.1/DTD/svg11.dtd">
<svg version="1.1" id="Layer_1" xmlns="http://www.w3.org/2000/svg" xmlns:xlink="http://www.w3.org/1999/xlink" x="0px" y="0px"
	 width="23px" height="14px" viewBox="0 0 23 14" enable-background="new 0 0 23 14" xml:space="preserve">
<path fill-rule="evenodd" clip-rule="evenodd" fill="#FFFFFF" d="M21.9,8.1H1.1C0.5,8.1,0,7.6,0,7s0.5-1.1,1.1-1.1h20.8
	C22.5,5.9,23,6.4,23,7S22.5,8.1,21.9,8.1 M21.9,2.3H1.1C0.5,2.3,0,1.8,0,1.3c0-0.6,0.5-1.1,1.1-1.1h20.8c0.6,0,1.1,0.5,1.1,1.1
	C23,1.8,22.5,2.3,21.9,2.3 M1.1,11.7h20.8c0.6,0,1.1,0.5,1.1,1.1c0,0.6-0.5,1.1-1.1,1.1H1.1c-0.6,0-1.1-0.5-1.1-1.1
	C0,12.2,0.5,11.7,1.1,11.7"/>
</svg>
