<?xml version="1.0" encoding="utf-8"?>
<!-- Generator: Adobe Illustrator 18.0.0, SVG Export Plug-In . SVG Version: 6.00 Build 0)  -->
<!DOCTYPE svg PUBLIC "-//W3C//DTD SVG 1.1//EN" "http://www.w3.org/Graphics/SVG/1.1/DTD/svg11.dtd">
<svg version="1.1" id="Layer_1" xmlns="http://www.w3.org/2000/svg" xmlns:xlink="http://www.w3.org/1999/xlink" x="0px" y="0px"
	 width="35px" height="35px" viewBox="0 0 35 35" enable-background="new 0 0 35 35" xml:space="preserve">
<path fill="#FFFFFF" d="M13.3,25.1h-3.2V14.9h3.2V25.1z M11.7,13.6c-1,0-1.8-0.8-1.8-1.8s0.8-1.8,1.8-1.8c1,0,1.8,0.8,1.8,1.8
	S12.7,13.6,11.7,13.6 M25.1,19.6v5.5h-3.2v-5.2c0-0.6,0.1-2.4-1.8-2.4c-1.9,0-1.8,2.4-1.8,2.4v5.2h-3.2V14.9h3v1.4
	c0.8-1.3,2.4-2.1,4.7-1.4C25.3,15.6,25.1,19.6,25.1,19.6"/>
</svg>
