<?xml version="1.0" encoding="utf-8"?>
<!-- Generator: Adobe Illustrator 18.0.0, SVG Export Plug-In . SVG Version: 6.00 Build 0)  -->
<!DOCTYPE svg PUBLIC "-//W3C//DTD SVG 1.1//EN" "http://www.w3.org/Graphics/SVG/1.1/DTD/svg11.dtd">
<svg version="1.1" id="Layer_1" xmlns="http://www.w3.org/2000/svg" xmlns:xlink="http://www.w3.org/1999/xlink" x="0px" y="0px"
	 width="35px" height="35px" viewBox="0 0 35 35" enable-background="new 0 0 35 35" xml:space="preserve">
<path fill="#FFFFFF" d="M26.8,13c0,0,0.6,5.8-4.4,10.6S9.3,27.4,6.3,24.9c0,0,4,0.4,6.8-2c0,0-3.3-0.1-4.3-3.2c0,0,1.7,0.2,2-0.2
	c0,0-3.6-0.9-3.6-4.6c0,0,1.1,0.5,2,0.6c0,0-3.5-2.5-1.4-6.2c0,0,3.5,4.6,9.6,5c0,0-0.9-2.7,1.7-4.9s5.6-0.3,6.2,0.5
	c0,0,1.8-0.3,3-1.1c0,0-0.4,1.6-1.9,2.6c0,0,1.8-0.3,2.6-0.7C29.2,10.6,28.2,12,26.8,13"/>
</svg>
