<?xml version="1.0" encoding="utf-8"?>
<!-- Generator: Adobe Illustrator 18.0.0, SVG Export Plug-In . SVG Version: 6.00 Build 0)  -->
<!DOCTYPE svg PUBLIC "-//W3C//DTD SVG 1.1//EN" "http://www.w3.org/Graphics/SVG/1.1/DTD/svg11.dtd">
<svg version="1.1" id="Layer_1" xmlns="http://www.w3.org/2000/svg" xmlns:xlink="http://www.w3.org/1999/xlink" x="0px" y="0px"
	 width="20px" height="20px" viewBox="0 0 20 20" enable-background="new 0 0 20 20" xml:space="preserve">
<path fill-rule="evenodd" clip-rule="evenodd" fill="#68BD49" d="M18.6,11.7h-0.3H18v1.5c0,0.1,0,0.1,0,0.2c0,0,0,0.1,0,0.1
	c0,0,0,0,0,0.1c0,0,0,0.1-0.1,0.1c0,0,0,0,0,0.1c0,0-0.1,0.1-0.1,0.1c0,0,0,0,0,0c-0.2,0.2-0.4,0.3-0.6,0.3c0,0,0,0,0,0
	c-0.2,0-0.5-0.1-0.6-0.3l-2.1-2.1h-0.1H5.9c-0.5,0-0.9-0.4-0.9-0.9v-9c0-0.5,0.4-0.9,0.9-0.9h12.7c0.5,0,0.9,0.4,0.9,0.9v9
	C19.5,11.3,19.1,11.7,18.6,11.7 M13.9,12.6l1.9,1.9l0,0c0.3,0.3,0.8,0.5,1.3,0.5v0.6c0,0.5-0.4,0.9-0.9,0.9H9.8H7.7H6.8H6.6
	l-2.4,2.4c-0.2,0.2-0.4,0.3-0.6,0.3c0,0,0,0,0,0c-0.2,0-0.5-0.1-0.6-0.3c0,0,0,0,0,0c0,0-0.1-0.1-0.1-0.1c0,0,0,0,0-0.1
	c0,0,0-0.1-0.1-0.1c0,0,0,0,0-0.1c0,0,0-0.1,0-0.1c0-0.1,0-0.1,0-0.2v-1.8H2.5H1.4c-0.5,0-0.9-0.4-0.9-0.9V5.3
	c0-0.5,0.4-0.9,0.9-0.9h2.7v6.3c0,1,0.8,1.8,1.8,1.8H13.9z"/>
</svg>
